<svg xmlns="http://www.w3.org/2000/svg" xmlns:xlink="http://www.w3.org/1999/xlink" width="103" height="103" viewBox="0 0 103 103">
  <defs>
    <filter id="Trazado_978624" x="0" y="0" width="103" height="103" filterUnits="userSpaceOnUse">
      <feOffset dy="3" input="SourceAlpha"/>
      <feGaussianBlur stdDeviation="3" result="blur"/>
      <feFlood flood-opacity="0.161"/>
      <feComposite operator="in" in2="blur"/>
      <feComposite in="SourceGraphic"/>
    </filter>
  </defs>
  <g id="Grupo_1223547" data-name="Grupo 1223547" transform="translate(-171 -1396)">
    <g id="Grupo_1223162" data-name="Grupo 1223162" transform="translate(0 647)">
      <g id="Grupo_1203387" data-name="Grupo 1203387" transform="translate(0 -83)">
        <g id="Grupo_1178310" data-name="Grupo 1178310" transform="translate(0 -2034)">
          <g id="Grupo_1176881" data-name="Grupo 1176881">
            <g id="Grupo_1175148" data-name="Grupo 1175148" transform="translate(0 1580)">
              <g id="Grupo_1173798" data-name="Grupo 1173798" transform="translate(-3 -3520)">
                <g id="Grupo_1171925" data-name="Grupo 1171925" transform="translate(-22 -2246)">
                  <g id="Grupo_1164524" data-name="Grupo 1164524" transform="translate(205 7058)">
                    <g id="Grupo_1144123" data-name="Grupo 1144123">
                      <g transform="matrix(1, 0, 0, 1, -9, -6)" filter="url(#Trazado_978624)">
                        <g id="Trazado_978624-2" data-name="Trazado 978624" transform="translate(9 6)" fill="#ebe9f0">
                          <path d="M 42.5 83.5 C 36.96437835693359 83.5 31.59512901306152 82.41617584228516 26.54141235351562 80.27863311767578 C 21.65934181213379 78.21369171142578 17.27447128295898 75.25723266601562 13.50862312316895 71.49137878417969 C 9.742764472961426 67.72553253173828 6.786305904388428 63.34066009521484 4.721364498138428 58.45858764648438 C 2.583823442459106 53.40486907958984 1.5 48.03562164306641 1.5 42.5 C 1.5 36.96437835693359 2.583823442459106 31.59512901306152 4.721364498138428 26.54141235351562 C 6.786305904388428 21.65934181213379 9.742764472961426 17.27447128295898 13.50862312316895 13.50862312316895 C 17.27447128295898 9.742764472961426 21.65934181213379 6.786305904388428 26.54141235351562 4.721364498138428 C 31.59512901306152 2.583823442459106 36.96437835693359 1.5 42.5 1.5 C 48.03562164306641 1.5 53.40486907958984 2.583823442459106 58.45858764648438 4.721364498138428 C 63.34066009521484 6.786305904388428 67.72553253173828 9.742764472961426 71.49137878417969 13.50862312316895 C 75.25723266601562 17.27447128295898 78.21369171142578 21.65934181213379 80.27863311767578 26.54141235351562 C 82.41617584228516 31.59512901306152 83.5 36.96437835693359 83.5 42.5 C 83.5 48.03562164306641 82.41617584228516 53.40486907958984 80.27863311767578 58.45858764648438 C 78.21369171142578 63.34066009521484 75.25723266601562 67.72553253173828 71.49137878417969 71.49137878417969 C 67.72553253173828 75.25723266601562 63.34066009521484 78.21369171142578 58.45858764648438 80.27863311767578 C 53.40486907958984 82.41617584228516 48.03562164306641 83.5 42.5 83.5 Z" stroke="none"/>
                          <path d="M 42.5 3 C 37.16621398925781 3 31.99356079101562 4.043960571289062 27.125732421875 6.102882385253906 C 22.42246627807617 8.092185974121094 18.19785308837891 10.94070434570312 14.56928253173828 14.56928253173828 C 10.94070434570312 18.19785308837891 8.092185974121094 22.42246627807617 6.102882385253906 27.125732421875 C 4.043960571289062 31.99356079101562 3 37.16621398925781 3 42.5 C 3 47.83378601074219 4.043960571289062 53.00643920898438 6.102882385253906 57.87425231933594 C 8.092185974121094 62.57753372192383 10.94070434570312 66.80213165283203 14.56928253173828 70.43071746826172 C 18.19786834716797 74.05929565429688 22.42246627807617 76.90781402587891 27.125732421875 78.89711761474609 C 31.99356079101562 80.95603942871094 37.16621398925781 82 42.5 82 C 47.83378601074219 82 53.00642395019531 80.95603942871094 57.87425231933594 78.89711761474609 C 62.57753372192383 76.90781402587891 66.80213165283203 74.05929565429688 70.43071746826172 70.43071746826172 C 74.05929565429688 66.80213165283203 76.90781402587891 62.57753372192383 78.89711761474609 57.87425231933594 C 80.95603942871094 53.00642395019531 82 47.83378601074219 82 42.5 C 82 37.16621398925781 80.95603942871094 31.99356079101562 78.89711761474609 27.125732421875 C 76.90781402587891 22.42246627807617 74.05929565429688 18.19786834716797 70.43071746826172 14.56928253173828 C 66.80213165283203 10.94070434570312 62.57753372192383 8.092185974121094 57.87425231933594 6.102882385253906 C 53.00643920898438 4.043960571289062 47.83378601074219 3 42.5 3 M 42.5 0 C 65.97209167480469 0 85 19.02789306640625 85 42.5 C 85 65.97209167480469 65.97209167480469 85 42.5 85 C 19.02789306640625 85 0 65.97209167480469 0 42.5 C 0 19.02789306640625 19.02789306640625 0 42.5 0 Z" stroke="none" fill="#c6c0d6"/>
                        </g>
                      </g>
                    </g>
                  </g>
                </g>
              </g>
            </g>
          </g>
        </g>
      </g>
    </g>
    <g id="profesor_2_" data-name="profesor (2)" transform="translate(192.329 1414.326)">
      <path id="Trazado_1210135" data-name="Trazado 1210135" d="M44.744,11.372v4.5a2.8,2.8,0,0,0-1.886-.726C30.6,15.144,30.6,10.429,30.6,10.429c0,4.715-4.715,4.715-4.715,4.715A2.8,2.8,0,0,0,24,15.87v-4.5a10.372,10.372,0,0,1,20.744,0Z" transform="translate(-1.199 -0.057)" fill="#555a66"/>
      <path id="Trazado_1210136" data-name="Trazado 1210136" d="M34.372,1A10.367,10.367,0,0,0,24,11.372v3.772a10.372,10.372,0,0,1,20.744,0V11.372A10.367,10.367,0,0,0,34.372,1Z" transform="translate(-1.199 -0.057)" fill="#414952"/>
      <path id="Trazado_1210137" data-name="Trazado 1210137" d="M36.829,58.829h.943V62.6H35.886A1.892,1.892,0,0,1,34,60.715V56a2.829,2.829,0,0,0,2.829,2.829Z" transform="translate(-1.769 -3.196)" fill="#cfa388"/>
      <path id="Trazado_1210138" data-name="Trazado 1210138" d="M36.829,58.829A2.829,2.829,0,0,1,34,56v1.886a2.829,2.829,0,0,0,2.829,2.829h.943V58.829Z" transform="translate(-1.769 -3.196)" fill="#b2876d"/>
      <path id="Trazado_1210139" data-name="Trazado 1210139" d="M37.772,47v5.658h-.943A2.829,2.829,0,0,0,34,55.486v-6.6A1.892,1.892,0,0,1,35.886,47Z" transform="translate(-1.769 -2.682)" fill="#cfa388"/>
      <path id="Trazado_1210140" data-name="Trazado 1210140" d="M47.429,59v3.772H38V59h9.429Z" transform="translate(-1.998 -3.367)" fill="#966857"/>
      <path id="Trazado_1210141" data-name="Trazado 1210141" d="M47.429,59v1.886H38V59h9.429Z" transform="translate(-1.998 -3.367)" fill="#8d5c4d"/>
      <path id="Trazado_1210142" data-name="Trazado 1210142" d="M47.429,47v5.658H38V47Z" transform="translate(-1.998 -2.682)" fill="#966857"/>
      <path id="Trazado_1210143" data-name="Trazado 1210143" d="M34.6,35.829l-2.829,2.829L28,34.886v-.943L31.772,33Z" transform="translate(-1.427 -1.883)" fill="#bec3d2"/>
      <path id="Trazado_1210144" data-name="Trazado 1210144" d="M41.6,34.009v.877l-3.772,3.772L35,35.829,37.829,33Z" transform="translate(-1.826 -1.883)" fill="#bec3d2"/>
      <path id="Trazado_1210145" data-name="Trazado 1210145" d="M37.658,38.829l-1.886,1.886H33.886L32,38.829,34.829,36Z" transform="translate(-1.655 -2.055)" fill="#4ab8f7"/>
      <path id="Trazado_1210146" data-name="Trazado 1210146" d="M35.715,41l1.3,5.658h-1.3a1.892,1.892,0,0,0-1.886,1.886v6.6L31,53.258,33.829,41Z" transform="translate(-1.598 -2.34)" fill="#19cffc"/>
      <path id="Trazado_1210147" data-name="Trazado 1210147" d="M11.543,51a35.325,35.325,0,0,1-.943,7.543S4,58.543,4,51a3.772,3.772,0,1,0,7.543,0Z" transform="translate(-0.057 -2.911)" fill="#bec3d2"/>
      <path id="Trazado_1210148" data-name="Trazado 1210148" d="M53,51h6.044c.057.368.113.745.16,1.132a5.623,5.623,0,0,1-1.546,4.677C57.168,52.886,53,52.886,53,52.886Z" transform="translate(-2.854 -2.911)" fill="#bec3d2"/>
      <path id="Trazado_1210149" data-name="Trazado 1210149" d="M48,59h4.715v3.772H48Z" transform="translate(-2.568 -3.367)" fill="#f2f6fc"/>
      <path id="Trazado_1210150" data-name="Trazado 1210150" d="M34.573,61.345H19.486V47.2L11,57.573a35.325,35.325,0,0,0,.943-7.543l1.886-11.315,1.886-1.886L27.03,34v.943L30.8,38.715,32.687,40.6,29.859,52.859l2.829,1.886v4.715A1.892,1.892,0,0,0,34.573,61.345Z" transform="translate(-0.457 -1.941)" fill="#dce1eb"/>
      <path id="Trazado_1210151" data-name="Trazado 1210151" d="M52.03,50.034V51.92H47.315V46.262H37.3L36,40.6l1.886-1.886,3.772-3.772V34.07L52.03,36.833s4.46,3.187,6.044,13.2Z" transform="translate(-1.883 -1.945)" fill="#dce1eb"/>
      <path id="Trazado_1210152" data-name="Trazado 1210152" d="M14.829,26v6.6H12V26Z" transform="translate(-0.514 -1.484)" fill="#faa68e"/>
      <path id="Trazado_1210153" data-name="Trazado 1210153" d="M6,30h5.658v2.829H6Z" transform="translate(-0.171 -1.712)" fill="#ffcdbe"/>
      <path id="Trazado_1210154" data-name="Trazado 1210154" d="M13.543,35.829a2.77,2.77,0,0,0-2.829,2.829H7.886L6,36.772V33h4.715a2.77,2.77,0,0,0,2.829,2.829Z" transform="translate(-0.171 -1.883)" fill="#faa68e"/>
      <path id="Trazado_1210155" data-name="Trazado 1210155" d="M15.715,33v3.772l-1.886,1.886H11a2.77,2.77,0,0,1,2.829-2.829A2.77,2.77,0,0,1,11,33Z" transform="translate(-0.457 -1.883)" fill="#ffbeaa"/>
      <path id="Trazado_1210156" data-name="Trazado 1210156" d="M13.429,39,11.543,50.315a3.772,3.772,0,0,1-7.543,0L7.772,39Z" transform="translate(-0.057 -2.226)" fill="#ffcdbe"/>
      <path id="Trazado_1210157" data-name="Trazado 1210157" d="M9.658,53.144a3.772,3.772,0,0,1-3.772-3.772L9.344,39H7.772L4,50.315a3.76,3.76,0,0,0,6.325,2.762,3.806,3.806,0,0,1-.668.067Z" transform="translate(-0.057 -2.226)" fill="#ffbeaa"/>
      <path id="Trazado_1210158" data-name="Trazado 1210158" d="M51.916,53s4.168,0,4.658,3.923a5.591,5.591,0,0,1-4.064,1.735H36.829a2.829,2.829,0,0,1,0-5.658Z" transform="translate(-1.769 -3.025)" fill="#ffcdbe"/>
      <path id="Trazado_1210159" data-name="Trazado 1210159" d="M52.51,56.886H36.829A2.794,2.794,0,0,1,34.174,55a2.82,2.82,0,0,0,2.655,3.772H52.51a5.591,5.591,0,0,0,4.064-1.735,4.605,4.605,0,0,0-.436-1.479,5.582,5.582,0,0,1-3.628,1.328Z" transform="translate(-1.77 -3.139)" fill="#ffbeaa"/>
      <g id="Grupo_1223546" data-name="Grupo 1223546" transform="translate(21.858 15.087)">
        <path id="Trazado_1210160" data-name="Trazado 1210160" d="M37.658,30.48v2.376l-2.829,2.829L32,32.856V30.48a8.4,8.4,0,0,0,5.658,0Z" transform="translate(-23.514 -16.826)" fill="#faa68e"/>
        <path id="Trazado_1210161" data-name="Trazado 1210161" d="M23.943,16.726A2.8,2.8,0,0,1,25.829,16v5.658A2.829,2.829,0,0,1,23,18.829,2.772,2.772,0,0,1,23.943,16.726Z" transform="translate(-23 -16)" fill="#faa68e"/>
        <path id="Trazado_1210162" data-name="Trazado 1210162" d="M44,16a2.829,2.829,0,0,1,0,5.658Z" transform="translate(-24.198 -16)" fill="#faa68e"/>
      </g>
      <path id="Trazado_1210163" data-name="Trazado 1210163" d="M42.973,15.715v5.658a8.486,8.486,0,0,1-16.973,0V15.715s4.715,0,4.715-4.715C30.715,11,30.715,15.715,42.973,15.715Z" transform="translate(-1.313 -0.628)" fill="#ffcdbe"/>
      <path id="Trazado_1210164" data-name="Trazado 1210164" d="M30.715,11c0,4.715-4.715,4.715-4.715,4.715V17.6s4.715,0,4.715-4.715c0,0,0,4.715,12.258,4.715V15.715C30.715,15.715,30.715,11,30.715,11Z" transform="translate(-1.313 -0.628)" fill="#ffbeaa"/>
      <path id="Trazado_1210165" data-name="Trazado 1210165" d="M34.429,30.744A9.44,9.44,0,0,1,25,21.315V15.658a.943.943,0,0,1,.943-.943,3.63,3.63,0,0,0,3.772-3.772.943.943,0,1,1,1.886,0c0,.008.388,3.772,11.315,3.772a.943.943,0,0,1,.943.943v5.658A9.44,9.44,0,0,1,34.429,30.744ZM26.886,16.52v4.795a7.543,7.543,0,0,0,15.087,0V16.591c-6.4-.13-9.458-1.588-10.922-3A5.489,5.489,0,0,1,26.886,16.52Z" transform="translate(-1.256 -0.571)"/>
      <path id="Trazado_1210166" data-name="Trazado 1210166" d="M44,22.543V20.658a1.886,1.886,0,0,0,0-3.772V15a3.772,3.772,0,0,1,0,7.543Z" transform="translate(-2.34 -0.856)"/>
      <path id="Trazado_1210167" data-name="Trazado 1210167" d="M25.772,22.543a3.772,3.772,0,0,1,0-7.543v1.886a1.886,1.886,0,0,0,0,3.772Z" transform="translate(-1.084 -0.856)"/>
      <path id="Trazado_1210168" data-name="Trazado 1210168" d="M45.63,16.03H43.744V11.315a9.429,9.429,0,0,0-18.859,0V16.03H23V11.315a11.315,11.315,0,1,1,22.63,0Z" transform="translate(-1.141)"/>
      <path id="Trazado_1210169" data-name="Trazado 1210169" d="M34.772,26.772A3.772,3.772,0,0,1,31,23h1.886a1.886,1.886,0,1,0,3.772,0h1.886A3.772,3.772,0,0,1,34.772,26.772Z" transform="translate(-1.598 -1.313)"/>
      <path id="Trazado_1210170" data-name="Trazado 1210170" d="M31,18h1.886v1.886H31Z" transform="translate(-1.598 -1.027)"/>
      <path id="Trazado_1210171" data-name="Trazado 1210171" d="M37,18h1.886v1.886H37Z" transform="translate(-1.941 -1.027)"/>
      <path id="Trazado_1210172" data-name="Trazado 1210172" d="M34.772,36.6a.943.943,0,0,1-.667-.276L31.276,33.5A.943.943,0,0,1,31,32.829V30h1.886v2.438l1.886,1.886,1.886-1.886V30h1.886v2.829a.943.943,0,0,1-.276.667l-2.829,2.829A.943.943,0,0,1,34.772,36.6Z" transform="translate(-1.598 -1.712)"/>
      <path id="Trazado_1210173" data-name="Trazado 1210173" d="M52.455,58.4H36.772a3.772,3.772,0,0,1,0-7.543H50.916V45.2H52.8v6.6a.943.943,0,0,1-.943.943H36.772a1.886,1.886,0,0,0,0,3.772H52.455a4.7,4.7,0,0,0,3.535-1.6,4.75,4.75,0,0,0,1.14-3.748c-1.217-9.343-4.989-12.977-5.708-13.59L37.468,33.856l.487-1.822L52.1,35.806a.943.943,0,0,1,.3.143c.209.15,5.136,3.786,6.594,14.975a6.614,6.614,0,0,1-6.541,7.48Z" transform="translate(-1.712 -1.828)"/>
      <path id="Trazado_1210174" data-name="Trazado 1210174" d="M47.144,62.973H35.829A2.829,2.829,0,0,1,33,60.144V48.829A2.829,2.829,0,0,1,35.829,46H47.144a.943.943,0,0,1,.943.943V52.6H46.2V47.886H35.829a.943.943,0,0,0-.943.943V60.144a.943.943,0,0,0,.943.943H46.2V58.258h1.886V62.03A.943.943,0,0,1,47.144,62.973Z" transform="translate(-1.712 -2.625)"/>
      <path id="Trazado_1210175" data-name="Trazado 1210175" d="M37,47h1.886v5.658H37Z" transform="translate(-1.941 -2.682)"/>
      <path id="Trazado_1210176" data-name="Trazado 1210176" d="M37,59h1.886v3.772H37Z" transform="translate(-1.941 -3.367)"/>
      <path id="Trazado_1210177" data-name="Trazado 1210177" d="M52.715,63.715H48V61.829h3.772V59h1.886v3.772A.943.943,0,0,1,52.715,63.715Z" transform="translate(-2.568 -3.367)"/>
      <path id="Trazado_1210178" data-name="Trazado 1210178" d="M7.715,54.973A4.72,4.72,0,0,1,3,50.258a.943.943,0,0,1,.048-.3L6.82,38.645A.943.943,0,0,1,7.715,38h5.658a.943.943,0,0,1,.93,1.1L12.429,50.34a4.719,4.719,0,0,1-4.715,4.633ZM4.886,50.4a2.83,2.83,0,1,0,5.658-.142.867.867,0,0,1,.013-.156l1.7-10.217H8.393Z" transform="translate(0 -2.169)"/>
      <path id="Trazado_1210179" data-name="Trazado 1210179" d="M14.438,39.267,13.1,37.934l1.61-1.61v-.553a.943.943,0,0,1-.943.943A1.775,1.775,0,0,0,11.886,38.6H10a3.575,3.575,0,0,1,1.2-2.824A3.985,3.985,0,0,1,10,32.943.943.943,0,0,1,10.943,32h4.715a.943.943,0,0,1,.943.943v3.772a.943.943,0,0,1-.276.667ZM12.1,33.886a1.685,1.685,0,0,0,1.675.943.943.943,0,0,1,.943.943V33.886Z" transform="translate(-0.399 -1.826)"/>
      <path id="Trazado_1210180" data-name="Trazado 1210180" d="M15.715,32.543H13.829V26.886h-.943v5.658H11v-6.6A.943.943,0,0,1,11.943,25h2.829a.943.943,0,0,1,.943.943Z" transform="translate(-0.457 -1.427)"/>
      <path id="Trazado_1210181" data-name="Trazado 1210181" d="M10.658,33.715H5.943A.943.943,0,0,1,5,32.772V29.943A.943.943,0,0,1,5.943,29H11.6v1.886H6.886v.943h3.772Z" transform="translate(-0.114 -1.655)"/>
      <path id="Trazado_1210182" data-name="Trazado 1210182" d="M7.162,39.324,5.276,37.438A.943.943,0,0,1,5,36.772V33H6.886v3.381l1.61,1.61Z" transform="translate(-0.114 -1.883)"/>
      <path id="Trazado_1210183" data-name="Trazado 1210183" d="M56.723,56.982c-.372-2.981-3.385-3.1-3.723-3.1V52a5.486,5.486,0,0,1,5.593,4.749Z" transform="translate(-2.854 -2.968)"/>
      <path id="Trazado_1210184" data-name="Trazado 1210184" d="M53,50h6.6v1.886H53Z" transform="translate(-2.854 -2.854)"/>
      <path id="Trazado_1210185" data-name="Trazado 1210185" d="M0,0H15.551V1.886H0Z" transform="translate(15.04 33.966) rotate(-14.064)"/>
      <path id="Trazado_1210186" data-name="Trazado 1210186" d="M34.117,63.03H19.03a.943.943,0,0,1-.943-.943v-11.5l-6.814,8.328a.943.943,0,0,1-.73.347c-.075,0-7.543-.094-7.543-8.486H4.886c0,5.5,3.91,6.417,5.236,6.57l8.178-10a.943.943,0,0,1,1.673.6v13.2H34.117Z" transform="translate(0 -2.683)"/>
      <path id="Trazado_1210187" data-name="Trazado 1210187" d="M11.859,58.773l-1.829-.458A34.686,34.686,0,0,0,10.945,51H12.83a35.978,35.978,0,0,1-.971,7.773Z" transform="translate(-0.401 -2.911)"/>
      <path id="Trazado_1210188" data-name="Trazado 1210188" d="M37.372,39.658a.943.943,0,0,1-.667-.276l-2.162-2.162-2.162,2.162a.943.943,0,0,1-1.333,0L27.276,35.61A.943.943,0,0,1,27,34.943V34h1.886v.553l2.829,2.829,2.162-2.162a.943.943,0,0,1,1.333,0l2.162,2.162L40.2,34.553V34h1.886v.943a.943.943,0,0,1-.276.667l-3.772,3.772A.943.943,0,0,1,37.372,39.658Z" transform="translate(-1.37 -1.941)"/>
      <path id="Trazado_1210189" data-name="Trazado 1210189" d="M35.731,41.788H33.846a.943.943,0,0,1-.667-.276l-1.886-1.886,1.333-1.333,1.61,1.61h1.105l1.61-1.61,1.333,1.333L36.4,41.512a.943.943,0,0,1-.667.276Z" transform="translate(-1.615 -2.186)"/>
      <path id="Trazado_1210190" data-name="Trazado 1210190" d="M33.248,55.916,30.42,54.03a.943.943,0,0,1-.4-1l2.829-12.258,1.839.424L32.008,52.822l2.287,1.525Z" transform="translate(-1.541 -2.327)"/>
      <path id="Trazado_1210191" data-name="Trazado 1210191" d="M0,0H1.886V5.806H0Z" transform="translate(33.208 38.893) rotate(-12.939)"/>
      <path id="Trazado_1210192" data-name="Trazado 1210192" d="M13,17h1.886v5.658H13Z" transform="translate(-0.571 -0.97)"/>
      <path id="Trazado_1210193" data-name="Trazado 1210193" d="M0,0H5.334V1.886H0Z" transform="translate(14.588 21.02) rotate(-45)"/>
      <path id="Trazado_1210194" data-name="Trazado 1210194" d="M0,0H1.886V5.334H0Z" transform="translate(7.046 18.582) rotate(-45)"/>
    </g>
  </g>
</svg>
