<svg xmlns="http://www.w3.org/2000/svg" xmlns:xlink="http://www.w3.org/1999/xlink" width="113" height="113" viewBox="0 0 113 113">
  <defs>
    <filter id="Trazado_982547" x="0" y="0" width="113" height="113" filterUnits="userSpaceOnUse">
      <feOffset dy="3" input="SourceAlpha"/>
      <feGaussianBlur stdDeviation="3" result="blur"/>
      <feFlood flood-opacity="0.161"/>
      <feComposite operator="in" in2="blur"/>
      <feComposite in="SourceGraphic"/>
    </filter>
  </defs>
  <g id="Grupo_1223799" data-name="Grupo 1223799" transform="translate(-4059 -1489.428)">
    <g id="Grupo_1223346" data-name="Grupo 1223346" transform="translate(2947 -4137.997)">
      <g id="Grupo_1202104" data-name="Grupo 1202104" transform="translate(0 -1149.226)">
        <g id="Grupo_1201923" data-name="Grupo 1201923" transform="translate(-4174.49 4856.378)">
          <g id="Grupo_1176928" data-name="Grupo 1176928" transform="translate(5295.49 1926.273)">
            <g id="Grupo_1172322" data-name="Grupo 1172322" transform="translate(0 0)">
              <g id="Grupo_1164700" data-name="Grupo 1164700">
                <g id="Grupo_1160931" data-name="Grupo 1160931">
                  <g id="Grupo_1160749" data-name="Grupo 1160749">
                    <g id="Grupo_1158891" data-name="Grupo 1158891">
                      <g id="Grupo_1157406" data-name="Grupo 1157406">
                        <g id="Grupo_1155793" data-name="Grupo 1155793">
                          <g id="Grupo_1154704" data-name="Grupo 1154704">
                            <g id="Grupo_1150790" data-name="Grupo 1150790">
                              <g id="Grupo_1154214" data-name="Grupo 1154214">
                                <g id="Grupo_1152583" data-name="Grupo 1152583">
                                  <g id="Grupo_1146973" data-name="Grupo 1146973">
                                    <g id="Grupo_1146954" data-name="Grupo 1146954">
                                      <g transform="matrix(1, 0, 0, 1, -9, -6)" filter="url(#Trazado_982547)">
                                        <g id="Trazado_982547-2" data-name="Trazado 982547" transform="translate(9 6)" fill="#d9d5e3">
                                          <path d="M 47.5000114440918 93.49987030029297 C 41.28938293457031 93.49987030029297 35.26534652709961 92.28384399414062 29.5951976776123 89.88558959960938 C 24.11773109436035 87.56881713867188 19.19814491271973 84.25183868408203 14.97310447692871 80.02680206298828 C 10.74805164337158 75.80176544189453 7.43107795715332 70.88218688964844 5.114304542541504 65.40472412109375 C 2.716038227081299 59.73458862304688 1.500011444091797 53.71054840087891 1.500011444091797 47.49993515014648 C 1.500011444091797 41.28932189941406 2.716038227081299 35.26528167724609 5.114304542541504 29.59514808654785 C 7.43107795715332 24.1176815032959 10.74805164337158 19.1981086730957 14.97310447692871 14.97306823730469 C 19.19814491271973 10.74802875518799 24.11773109436035 7.431055068969727 29.5951976776123 5.11428165435791 C 35.26534652709961 2.716028451919556 41.28938293457031 1.500001788139343 47.5000114440918 1.500001788139343 C 53.71063995361328 1.500001788139343 59.73467636108398 2.716028451919556 65.40482330322266 5.11428165435791 C 70.88229370117188 7.431055068969727 75.8018798828125 10.74802875518799 80.02691650390625 14.97306823730469 C 84.25196838378906 19.1981086730957 87.56894683837891 24.1176815032959 89.88571929931641 29.59514808654785 C 92.28398132324219 35.26528167724609 93.50001525878906 41.28932189941406 93.50001525878906 47.49993515014648 C 93.50001525878906 53.71054840087891 92.28398132324219 59.73458862304688 89.88571929931641 65.40472412109375 C 87.56894683837891 70.88218688964844 84.25196838378906 75.80176544189453 80.02691650390625 80.02680206298828 C 75.8018798828125 84.25183868408203 70.88229370117188 87.56881713867188 65.40482330322266 89.88558959960938 C 59.73467636108398 92.28384399414062 53.71063995361328 93.49987030029297 47.5000114440918 93.49987030029297 Z" stroke="none"/>
                                          <path d="M 47.5000114440918 3 C 41.49122619628906 3 35.66378021240234 4.1761474609375 30.17951965332031 6.495796203613281 C 24.880859375 8.7369384765625 20.12153625488281 11.94596862792969 16.03376770019531 16.03373718261719 C 11.94598388671875 20.12149047851562 8.736968994140625 24.88081359863281 6.495811462402344 30.17947387695312 C 4.176162719726562 35.66371917724609 3.000007629394531 41.49116516113281 3.000007629394531 47.49993515014648 C 3.000007629394531 53.50870513916016 4.176162719726562 59.33615112304688 6.495811462402344 64.82039642333984 C 8.736968994140625 70.11905670166016 11.94598388671875 74.87837982177734 16.03376770019531 78.96613311767578 C 20.12153625488281 83.05390167236328 24.880859375 86.26293182373047 30.17951965332031 88.50407409667969 C 35.66378021240234 90.82372283935547 41.49122619628906 91.99987030029297 47.5000114440918 91.99987030029297 C 53.50879669189453 91.99987030029297 59.33624267578125 90.82372283935547 64.82050323486328 88.50407409667969 C 70.11916351318359 86.26293182373047 74.87848663330078 83.05390167236328 78.96625518798828 78.96613311767578 C 83.05403900146484 74.87837982177734 86.2630615234375 70.11905670166016 88.50421142578125 64.82039642333984 C 90.82386016845703 59.33615112304688 92.00001525878906 53.50870513916016 92.00001525878906 47.49993515014648 C 92.00001525878906 41.49116516113281 90.82386016845703 35.66371917724609 88.50421142578125 30.17947387695312 C 86.2630615234375 24.88081359863281 83.05403900146484 20.12149047851562 78.96625518798828 16.03373718261719 C 74.87848663330078 11.94596862792969 70.11916351318359 8.7369384765625 64.82050323486328 6.495796203613281 C 59.33624267578125 4.1761474609375 53.50879669189453 3 47.5000114440918 3 M 47.5000114440918 0 C 73.73353576660156 0 95.00001525878906 21.26644134521484 95.00001525878906 47.49993515014648 C 95.00001525878906 73.73342895507812 73.73353576660156 94.99987030029297 47.5000114440918 94.99987030029297 C 21.26648712158203 94.99987030029297 7.62939453125e-06 73.73342895507812 7.62939453125e-06 47.49993515014648 C 7.62939453125e-06 21.26644134521484 21.26648712158203 0 47.5000114440918 0 Z" stroke="none" fill="#453179"/>
                                        </g>
                                      </g>
                                    </g>
                                  </g>
                                </g>
                              </g>
                            </g>
                          </g>
                        </g>
                      </g>
                    </g>
                  </g>
                </g>
              </g>
            </g>
          </g>
        </g>
      </g>
    </g>
    <g id="chico" transform="translate(4083.098 1515.54)">
      <path id="Trazado_1210567" data-name="Trazado 1210567" d="M332.952,52.829a5.628,5.628,0,0,0-5.445-5.624V45.75H334.9a5.629,5.629,0,0,1,5.629,5.629V62.065a.6.6,0,0,1-.6.6,6.977,6.977,0,0,1-6.977-6.977V52.829Zm0,0" transform="translate(-286.055 -39.96)" fill="#ffa300"/>
      <path id="Trazado_1210568" data-name="Trazado 1210568" d="M334.893,38.772h.492a1.561,1.561,0,0,0,1.561-1.561V35.092a1.561,1.561,0,0,0-1.561-1.561h-.492a1.561,1.561,0,0,0-1.561,1.561v2.119A1.561,1.561,0,0,0,334.893,38.772Zm0,0" transform="translate(-291.143 -29.288)" fill="#dd5298"/>
      <path id="Trazado_1210569" data-name="Trazado 1210569" d="M90.483,52.829A5.628,5.628,0,0,1,95.928,47.2V45.75H88.539a5.629,5.629,0,0,0-5.629,5.629V62.065a.6.6,0,0,0,.6.6,6.976,6.976,0,0,0,6.976-6.977Zm0,0" transform="translate(-72.416 -39.96)" fill="#ffa300"/>
      <path id="Trazado_1210570" data-name="Trazado 1210570" d="M362.138,45.75H358.7a5.629,5.629,0,0,1,5.629,5.629V62.056a6.951,6.951,0,0,0,2.845.607.6.6,0,0,0,.6-.6V51.379A5.629,5.629,0,0,0,362.138,45.75Zm0,0" transform="translate(-313.296 -39.96)" fill="#ff8b00"/>
      <path id="Trazado_1210571" data-name="Trazado 1210571" d="M92.486,57.242a5.628,5.628,0,0,0-5.445,5.624v2.857a6.975,6.975,0,0,1-4.131,6.369v.01a.6.6,0,0,0,.6.6,6.976,6.976,0,0,0,6.976-6.976V62.866a5.628,5.628,0,0,1,5.444-5.624Zm0,0" transform="translate(-72.416 -49.997)" fill="#ff8b00"/>
      <path id="Trazado_1210572" data-name="Trazado 1210572" d="M153.439,38.772h-.492a1.561,1.561,0,0,1-1.561-1.561V35.092a1.561,1.561,0,0,1,1.561-1.561h.492A1.561,1.561,0,0,1,155,35.092v2.119A1.56,1.56,0,0,1,153.439,38.772Zm0,0" transform="translate(-132.226 -29.288)" fill="#dd5298"/>
      <path id="Trazado_1210573" data-name="Trazado 1210573" d="M343.57,33.531h-.458a1.578,1.578,0,0,0-.389.05,1.577,1.577,0,0,1,1.189,1.527v2.085a1.576,1.576,0,0,1-1.189,1.527,1.578,1.578,0,0,0,.389.05h.458a1.578,1.578,0,0,0,1.578-1.578V35.109a1.578,1.578,0,0,0-1.578-1.578Zm0,0" transform="translate(-299.345 -29.288)" fill="#c93f84"/>
      <path id="Trazado_1210574" data-name="Trazado 1210574" d="M161.625,33.531h-.458a1.578,1.578,0,0,0-.389.05,1.577,1.577,0,0,1,1.189,1.527v2.085a1.576,1.576,0,0,1-1.189,1.527,1.578,1.578,0,0,0,.389.05h.458a1.578,1.578,0,0,0,1.578-1.578V35.109a1.578,1.578,0,0,0-1.578-1.578Zm0,0" transform="translate(-140.428 -29.288)" fill="#c93f84"/>
      <path id="Trazado_1210575" data-name="Trazado 1210575" d="M164.6,20.366h-.238V18.445A10.867,10.867,0,0,0,153.491,7.578h-2.9a10.867,10.867,0,0,0-10.867,10.867v1.921h-.535a2.325,2.325,0,0,0-2.325,2.325v1.072a3.231,3.231,0,0,0,3.23,3.23,2.331,2.331,0,0,0,.414-.039,10.869,10.869,0,0,0,10.083,6.812h2.9a10.87,10.87,0,0,0,10.079-6.8,2.5,2.5,0,0,0,.362.029,3.19,3.19,0,0,0,3.189-3.19v-.913A2.525,2.525,0,0,0,164.6,20.366Zm0,0" transform="translate(-119.544 -6.619)" fill="#ffc5b2"/>
      <path id="Trazado_1210576" data-name="Trazado 1210576" d="M258.3,20.366h-.238V18.445A10.867,10.867,0,0,0,247.194,7.578h-2.9c-.05,0-.1,0-.149,0a10.865,10.865,0,0,1,10.718,10.863V22.9a10.866,10.866,0,0,1-10.718,10.864c.049,0,.1,0,.149,0h2.9a10.868,10.868,0,0,0,10.078-6.8,2.507,2.507,0,0,0,.363.029,3.189,3.189,0,0,0,3.189-3.189v-.914a2.525,2.525,0,0,0-2.525-2.525Zm0,0" transform="translate(-213.247 -6.619)" fill="#ffae92"/>
      <path id="Trazado_1210577" data-name="Trazado 1210577" d="M168.211,15.513h7.138a10.851,10.851,0,0,1,8.747,4.42V18.445A10.867,10.867,0,0,0,173.228,7.578h-2.9a10.867,10.867,0,0,0-10.867,10.867v1.487A10.85,10.85,0,0,1,168.211,15.513Zm0,0" transform="translate(-139.281 -6.619)" fill="#ffa300"/>
      <path id="Trazado_1210578" data-name="Trazado 1210578" d="M240.06,7.578h-2.9a10.988,10.988,0,0,0-1.183.065,10.873,10.873,0,0,1,9.4,8.35,10.887,10.887,0,0,1,5.542,3.939V18.445A10.867,10.867,0,0,0,240.06,7.578Zm0,0" transform="translate(-206.113 -6.619)" fill="#ff8b00"/>
      <path id="Trazado_1210579" data-name="Trazado 1210579" d="M211.827,110.392a1.427,1.427,0,1,1-1.427-1.427,1.427,1.427,0,0,1,1.427,1.427Zm0,0" transform="translate(-182.523 -95.173)" fill="#bc693f"/>
      <path id="Trazado_1210580" data-name="Trazado 1210580" d="M284.859,110.392a1.427,1.427,0,1,1-1.427-1.427,1.427,1.427,0,0,1,1.427,1.427Zm0,0" transform="translate(-246.311 -95.173)" fill="#bc693f"/>
      <path id="Trazado_1210581" data-name="Trazado 1210581" d="M223.757,152.344a4.81,4.81,0,0,0,4.78-4.281.477.477,0,0,0-.473-.529H219.45a.477.477,0,0,0-.473.529,4.81,4.81,0,0,0,4.78,4.281Zm0,0" transform="translate(-191.259 -128.862)" fill="#fff"/>
      <path id="Trazado_1210582" data-name="Trazado 1210582" d="M293.113,231.069h-.238v-1.921a10.867,10.867,0,0,0-10.867-10.867h-2.9a10.867,10.867,0,0,0-10.867,10.867v1.921h-.535a2.325,2.325,0,0,0-2.325,2.325v1.072a3.231,3.231,0,0,0,3.23,3.231,2.34,2.34,0,0,0,.415-.039,10.868,10.868,0,0,0,10.082,6.812h2.9a10.869,10.869,0,0,0,10.079-6.8,2.581,2.581,0,0,0,.363.029,3.189,3.189,0,0,0,3.189-3.189v-.913a2.525,2.525,0,0,0-2.525-2.525Zm0,0" transform="translate(-231.794 -190.654)" fill="#ffc5b2"/>
      <path id="Trazado_1210583" data-name="Trazado 1210583" d="M386.815,231.069h-.238v-1.921a10.867,10.867,0,0,0-10.867-10.867h-2.9c-.05,0-.1,0-.149,0a10.866,10.866,0,0,1,10.719,10.864V233.6a10.866,10.866,0,0,1-10.719,10.863c.05,0,.1,0,.149,0h2.9a10.869,10.869,0,0,0,10.079-6.8,2.5,2.5,0,0,0,.362.029,3.19,3.19,0,0,0,3.19-3.19v-.913a2.525,2.525,0,0,0-2.525-2.525Zm0,0" transform="translate(-325.497 -190.654)" fill="#ffae92"/>
      <path id="Trazado_1210584" data-name="Trazado 1210584" d="M296.727,226.216h7.138a10.85,10.85,0,0,1,8.747,4.42v-1.487a10.867,10.867,0,0,0-10.867-10.867h-2.9a10.867,10.867,0,0,0-10.867,10.867v1.487A10.85,10.85,0,0,1,296.727,226.216Zm0,0" transform="translate(-251.531 -190.654)" fill="#fab700"/>
      <path id="Trazado_1210585" data-name="Trazado 1210585" d="M340.344,321.1a1.428,1.428,0,1,1-1.427-1.427A1.427,1.427,0,0,1,340.344,321.1Zm0,0" transform="translate(-294.773 -279.208)" fill="#257edf"/>
      <path id="Trazado_1210586" data-name="Trazado 1210586" d="M413.374,321.1a1.427,1.427,0,1,1-1.427-1.427A1.427,1.427,0,0,1,413.374,321.1Zm0,0" transform="translate(-358.56 -279.208)" fill="#257edf"/>
      <path id="Trazado_1210587" data-name="Trazado 1210587" d="M352.275,363.047a4.81,4.81,0,0,0,4.78-4.281.477.477,0,0,0-.473-.528h-8.615a.476.476,0,0,0-.473.528A4.81,4.81,0,0,0,352.275,363.047Zm0,0" transform="translate(-303.51 -312.896)" fill="#fff"/>
      <path id="Trazado_1210588" data-name="Trazado 1210588" d="M35.312,231.069h-.238v-1.921a10.867,10.867,0,0,0-10.867-10.867h-2.9a10.867,10.867,0,0,0-10.867,10.867v1.921H9.907a2.325,2.325,0,0,0-2.325,2.325v1.072a3.231,3.231,0,0,0,3.23,3.231,2.34,2.34,0,0,0,.415-.039,10.867,10.867,0,0,0,10.082,6.812h2.9a10.869,10.869,0,0,0,10.079-6.8,2.581,2.581,0,0,0,.363.029,3.189,3.189,0,0,0,3.189-3.189v-.913a2.526,2.526,0,0,0-2.525-2.525Zm0,0" transform="translate(-6.623 -190.654)" fill="#bc663b"/>
      <path id="Trazado_1210589" data-name="Trazado 1210589" d="M129.014,231.069h-.238v-1.921a10.867,10.867,0,0,0-10.867-10.867h-2.9c-.05,0-.1,0-.149,0a10.866,10.866,0,0,1,10.719,10.864V233.6a10.866,10.866,0,0,1-10.719,10.863c.05,0,.1,0,.149,0h2.9a10.869,10.869,0,0,0,10.079-6.8,2.5,2.5,0,0,0,.362.029,3.19,3.19,0,0,0,3.189-3.19v-.913a2.525,2.525,0,0,0-2.525-2.525Zm0,0" transform="translate(-100.325 -190.654)" fill="#ad5731"/>
      <path id="Trazado_1210590" data-name="Trazado 1210590" d="M38.926,226.216h7.138a10.85,10.85,0,0,1,8.747,4.42v-1.487a10.867,10.867,0,0,0-10.867-10.867h-2.9A10.867,10.867,0,0,0,30.18,229.149v1.487A10.85,10.85,0,0,1,38.926,226.216Zm0,0" transform="translate(-26.36 -190.654)" fill="#824a25"/>
      <path id="Trazado_1210591" data-name="Trazado 1210591" d="M369.279,218.281h-2.9c-.365,0-.725.019-1.081.053a10.873,10.873,0,0,1,9.522,8.433,10.892,10.892,0,0,1,5.323,3.867v-1.487A10.867,10.867,0,0,0,369.279,218.281Zm0,0" transform="translate(-319.066 -190.654)" fill="#ffa300"/>
      <g id="Grupo_1223798" data-name="Grupo 1223798" transform="translate(10.086 27.627)">
        <path id="Trazado_1210592" data-name="Trazado 1210592" d="M111.478,218.281h-2.9c-.365,0-.725.019-1.081.053a10.873,10.873,0,0,1,9.522,8.433,10.892,10.892,0,0,1,5.323,3.867v-1.487a10.867,10.867,0,0,0-10.867-10.867Zm0,0" transform="translate(-103.98 -218.281)" fill="#703e23"/>
        <path id="Trazado_1210593" data-name="Trazado 1210593" d="M82.543,321.1a1.428,1.428,0,1,1-1.427-1.427A1.427,1.427,0,0,1,82.543,321.1Zm0,0" transform="translate(-79.687 -306.835)" fill="#703e23"/>
        <path id="Trazado_1210594" data-name="Trazado 1210594" d="M155.573,321.1a1.427,1.427,0,1,1-1.427-1.427A1.427,1.427,0,0,1,155.573,321.1Zm0,0" transform="translate(-143.475 -306.835)" fill="#703e23"/>
      </g>
      <path id="Trazado_1210595" data-name="Trazado 1210595" d="M94.475,363.047a4.81,4.81,0,0,0,4.78-4.281.477.477,0,0,0-.473-.528H90.167a.476.476,0,0,0-.473.528,4.809,4.809,0,0,0,4.78,4.281Zm0,0" transform="translate(-78.34 -312.896)" fill="#fff"/>
      <path id="Trazado_1210596" data-name="Trazado 1210596" d="M76.889,23.662a7.9,7.9,0,0,0,6.573-3.485,4.176,4.176,0,0,0,2.691,1.154,11.772,11.772,0,0,0,10.7,6.778h2.9a11.774,11.774,0,0,0,10.7-6.781,4.137,4.137,0,0,0,2.64-1.173,7.888,7.888,0,0,0,6.59,3.507,1.558,1.558,0,0,0,1.556-1.556V11.419a6.6,6.6,0,0,0-6.588-6.588h-2.281a2.541,2.541,0,0,0-2.336-1.547h-.458a2.535,2.535,0,0,0-1.291.357A11.8,11.8,0,0,0,99.745,0h-2.9a11.8,11.8,0,0,0-8.54,3.654,2.535,2.535,0,0,0-1.313-.369h-.458A2.541,2.541,0,0,0,84.2,4.831H81.92a6.6,6.6,0,0,0-6.588,6.588V22.105a1.558,1.558,0,0,0,1.556,1.556Zm33.3-4.246a1.627,1.627,0,0,1-.226-.019.958.958,0,0,0-1.026.59,9.868,9.868,0,0,1-9.189,6.2h-2.9a9.866,9.866,0,0,1-9.192-6.211.959.959,0,0,0-.889-.6,1,1,0,0,0-.171.015,1.35,1.35,0,0,1-.244.024,2.274,2.274,0,0,1-2.271-2.271V16.072a1.367,1.367,0,0,1,1.366-1.366h.535a.959.959,0,0,0,.96-.96v-.11a9.955,9.955,0,0,1,7.787-3.784h7.138a9.956,9.956,0,0,1,7.787,3.784v.11a.96.96,0,0,0,.96.96h.238a1.567,1.567,0,0,1,1.565,1.566v.913a2.232,2.232,0,0,1-2.23,2.23Zm9.123-8V21.732a5.978,5.978,0,0,1-5.108-3.5,4.154,4.154,0,0,0,.134-1.047v-.914a3.463,3.463,0,0,0-.681-2.062s-.011-1.787-.033-2.007a.959.959,0,0,0-1.909.191,4.725,4.725,0,0,1,.024.474v.037c-.054-.014-.108-.031-.164-.042V11.826a11.921,11.921,0,0,0-.139-1.813,2.549,2.549,0,0,0,1.128-2.106V6.749h2.079a4.675,4.675,0,0,1,4.669,4.67ZM109.565,5.2h.458a.619.619,0,0,1,.619.618V7.23a11.834,11.834,0,0,0-1.1-2.025h.025ZM96.848,1.918h2.9a9.922,9.922,0,0,1,9.857,8.9,11.878,11.878,0,0,0-7.737-2.889H94.727a11.878,11.878,0,0,0-7.737,2.889,9.922,9.922,0,0,1,9.858-8.9ZM86.536,5.2h.458c.019,0,.038,0,.057,0a11.808,11.808,0,0,0-1.133,2.1V5.821a.619.619,0,0,1,.618-.618Zm-9.285,6.216a4.675,4.675,0,0,1,4.669-4.67H84V7.907a2.537,2.537,0,0,0,1.157,2.127,11.907,11.907,0,0,0-.135,1.792v.989c-.066.008-.132.02-.2.032,0-.151.008-.3.023-.45a.959.959,0,0,0-1.909-.191c-.022.219-.033,1.787-.033,1.787a3.269,3.269,0,0,0-.744,2.079v1.072a4.165,4.165,0,0,0,.165,1.16,5.992,5.992,0,0,1-5.075,3.427Zm0,0" transform="translate(-65.798)"/>
      <path id="Trazado_1210597" data-name="Trazado 1210597" d="M211.827,110.392a1.427,1.427,0,1,1-1.427-1.427,1.427,1.427,0,0,1,1.427,1.427Zm0,0" transform="translate(-182.523 -95.173)"/>
      <path id="Trazado_1210598" data-name="Trazado 1210598" d="M284.859,110.392a1.427,1.427,0,1,1-1.427-1.427,1.427,1.427,0,0,1,1.427,1.427Zm0,0" transform="translate(-246.311 -95.173)"/>
      <path id="Trazado_1210599" data-name="Trazado 1210599" d="M221.448,139.957h-8.615a1.436,1.436,0,0,0-1.426,1.592,5.769,5.769,0,0,0,11.468,0,1.435,1.435,0,0,0-1.426-1.592Zm-4.308,4.809a3.842,3.842,0,0,1-3.729-2.89h7.459A3.842,3.842,0,0,1,217.14,144.766Zm0,0" transform="translate(-184.641 -122.243)"/>
      <path id="Trazado_1210600" data-name="Trazado 1210600" d="M287.211,223.563v-1.037A11.84,11.84,0,0,0,275.384,210.7h-2.9a11.84,11.84,0,0,0-11.827,11.827v.989a3.29,3.29,0,0,0-2.86,3.258v1.072a4.2,4.2,0,0,0,3.992,4.186,11.771,11.771,0,0,0,10.7,6.778h2.9a11.774,11.774,0,0,0,10.7-6.781,4.154,4.154,0,0,0,3.893-4.141v-.914a3.49,3.49,0,0,0-2.764-3.409Zm-14.723-10.945h2.9a9.922,9.922,0,0,1,9.857,8.905,11.876,11.876,0,0,0-7.737-2.889h-7.138a11.876,11.876,0,0,0-7.737,2.889A9.921,9.921,0,0,1,272.488,212.618Zm15.568,15.268a2.232,2.232,0,0,1-2.23,2.23,1.618,1.618,0,0,1-.226-.019.957.957,0,0,0-1.026.59,9.868,9.868,0,0,1-9.189,6.2h-2.9a9.866,9.866,0,0,1-9.193-6.211.958.958,0,0,0-1.06-.586,1.343,1.343,0,0,1-.244.024,2.274,2.274,0,0,1-2.271-2.271v-1.072a1.367,1.367,0,0,1,1.366-1.366h.535a.96.96,0,0,0,.96-.96v-.11a9.957,9.957,0,0,1,7.787-3.784H277.5a9.957,9.957,0,0,1,7.787,3.784v.11a.96.96,0,0,0,.96.96h.238a1.567,1.567,0,0,1,1.566,1.565Zm0,0" transform="translate(-225.171 -184.032)"/>
      <path id="Trazado_1210601" data-name="Trazado 1210601" d="M340.344,321.1a1.428,1.428,0,1,1-1.427-1.427A1.427,1.427,0,0,1,340.344,321.1Zm0,0" transform="translate(-294.773 -279.208)"/>
      <path id="Trazado_1210602" data-name="Trazado 1210602" d="M413.374,321.1a1.427,1.427,0,1,1-1.427-1.427A1.427,1.427,0,0,1,413.374,321.1Zm0,0" transform="translate(-358.56 -279.208)"/>
      <path id="Trazado_1210603" data-name="Trazado 1210603" d="M349.963,350.656h-8.615a1.436,1.436,0,0,0-1.426,1.592,5.769,5.769,0,0,0,11.468,0,1.436,1.436,0,0,0-1.426-1.592Zm-4.308,4.809a3.841,3.841,0,0,1-3.729-2.89h7.459A3.842,3.842,0,0,1,345.655,355.465Zm0,0" transform="translate(-296.89 -306.274)"/>
      <path id="Trazado_1210604" data-name="Trazado 1210604" d="M29.41,223.563v-1.037A11.84,11.84,0,0,0,17.584,210.7h-2.9A11.84,11.84,0,0,0,2.86,222.526v.989A3.29,3.29,0,0,0,0,226.772v1.072a4.2,4.2,0,0,0,3.992,4.186,11.771,11.771,0,0,0,10.7,6.778h2.9a11.774,11.774,0,0,0,10.7-6.781,4.155,4.155,0,0,0,3.893-4.141v-.914A3.491,3.491,0,0,0,29.41,223.563Zm.844,4.323a2.233,2.233,0,0,1-2.23,2.23,1.618,1.618,0,0,1-.226-.019.958.958,0,0,0-1.026.59,9.868,9.868,0,0,1-9.189,6.2h-2.9a9.866,9.866,0,0,1-9.192-6.211.958.958,0,0,0-1.06-.586,1.347,1.347,0,0,1-.244.024,2.274,2.274,0,0,1-2.271-2.271v-1.072a1.367,1.367,0,0,1,1.366-1.366h.535a.96.96,0,0,0,.96-.96v-.11a9.957,9.957,0,0,1,7.787-3.784H19.7a9.981,9.981,0,0,1,1.937.189.959.959,0,1,0,.373-1.882,11.906,11.906,0,0,0-2.31-.226H12.566a11.878,11.878,0,0,0-7.737,2.889,9.922,9.922,0,0,1,9.858-8.905h2.9a9.922,9.922,0,0,1,9.857,8.9,11.925,11.925,0,0,0-1.41-1.051A.96.96,0,1,0,25,222.088a9.928,9.928,0,0,1,2.489,2.253v.107a.959.959,0,0,0,.96.959h.238a1.568,1.568,0,0,1,1.566,1.566Zm0,0" transform="translate(0 -184.031)"/>
      <path id="Trazado_1210605" data-name="Trazado 1210605" d="M82.543,321.1a1.428,1.428,0,1,1-1.427-1.427A1.427,1.427,0,0,1,82.543,321.1Zm0,0" transform="translate(-69.602 -279.208)"/>
      <path id="Trazado_1210606" data-name="Trazado 1210606" d="M155.573,321.1a1.427,1.427,0,1,1-1.427-1.427A1.427,1.427,0,0,1,155.573,321.1Zm0,0" transform="translate(-133.389 -279.208)"/>
      <path id="Trazado_1210607" data-name="Trazado 1210607" d="M92.163,350.656H83.547a1.436,1.436,0,0,0-1.426,1.592,5.769,5.769,0,0,0,11.468,0,1.436,1.436,0,0,0-1.426-1.592Zm-4.308,4.809a3.842,3.842,0,0,1-3.729-2.89h7.459A3.842,3.842,0,0,1,87.855,355.465Zm0,0" transform="translate(-71.72 -306.274)"/>
    </g>
  </g>
</svg>
