<svg xmlns="http://www.w3.org/2000/svg" xmlns:xlink="http://www.w3.org/1999/xlink" width="113" height="113" viewBox="0 0 113 113">
  <defs>
    <filter id="Trazado_982547" x="0" y="0" width="113" height="113" filterUnits="userSpaceOnUse">
      <feOffset dy="3" input="SourceAlpha"/>
      <feGaussianBlur stdDeviation="3" result="blur"/>
      <feFlood flood-opacity="0.161"/>
      <feComposite operator="in" in2="blur"/>
      <feComposite in="SourceGraphic"/>
    </filter>
  </defs>
  <g id="Grupo_1223793" data-name="Grupo 1223793" transform="translate(-793 -1489)">
    <g id="Grupo_1208028" data-name="Grupo 1208028" transform="translate(-0.49 -4138.425)">
      <g id="Grupo_1177675" data-name="Grupo 1177675" transform="translate(-4493 3707.152)">
        <g id="Grupo_1176928" data-name="Grupo 1176928" transform="translate(5295.49 1926.273)">
          <g id="Grupo_1172322" data-name="Grupo 1172322" transform="translate(0 0)">
            <g id="Grupo_1164700" data-name="Grupo 1164700">
              <g id="Grupo_1160931" data-name="Grupo 1160931">
                <g id="Grupo_1160749" data-name="Grupo 1160749">
                  <g id="Grupo_1158891" data-name="Grupo 1158891">
                    <g id="Grupo_1157406" data-name="Grupo 1157406">
                      <g id="Grupo_1155793" data-name="Grupo 1155793">
                        <g id="Grupo_1154704" data-name="Grupo 1154704">
                          <g id="Grupo_1150790" data-name="Grupo 1150790">
                            <g id="Grupo_1154214" data-name="Grupo 1154214">
                              <g id="Grupo_1152583" data-name="Grupo 1152583">
                                <g id="Grupo_1146973" data-name="Grupo 1146973">
                                  <g id="Grupo_1146954" data-name="Grupo 1146954">
                                    <g transform="matrix(1, 0, 0, 1, -9, -6)" filter="url(#Trazado_982547)">
                                      <g id="Trazado_982547-2" data-name="Trazado 982547" transform="translate(9 6)" fill="#d9d5e3">
                                        <path d="M 47.5000114440918 93.49987030029297 C 41.28938293457031 93.49987030029297 35.26534652709961 92.28384399414062 29.5951976776123 89.88558959960938 C 24.11773109436035 87.56881713867188 19.19814491271973 84.25183868408203 14.97310447692871 80.02680206298828 C 10.74805164337158 75.80176544189453 7.43107795715332 70.88218688964844 5.114304542541504 65.40472412109375 C 2.716038227081299 59.73458862304688 1.500011444091797 53.71054840087891 1.500011444091797 47.49993515014648 C 1.500011444091797 41.28932189941406 2.716038227081299 35.26528167724609 5.114304542541504 29.59514808654785 C 7.43107795715332 24.1176815032959 10.74805164337158 19.1981086730957 14.97310447692871 14.97306823730469 C 19.19814491271973 10.74802875518799 24.11773109436035 7.431055068969727 29.5951976776123 5.11428165435791 C 35.26534652709961 2.716028451919556 41.28938293457031 1.500001788139343 47.5000114440918 1.500001788139343 C 53.71063995361328 1.500001788139343 59.73467636108398 2.716028451919556 65.40482330322266 5.11428165435791 C 70.88229370117188 7.431055068969727 75.8018798828125 10.74802875518799 80.02691650390625 14.97306823730469 C 84.25196838378906 19.1981086730957 87.56894683837891 24.1176815032959 89.88571929931641 29.59514808654785 C 92.28398132324219 35.26528167724609 93.50001525878906 41.28932189941406 93.50001525878906 47.49993515014648 C 93.50001525878906 53.71054840087891 92.28398132324219 59.73458862304688 89.88571929931641 65.40472412109375 C 87.56894683837891 70.88218688964844 84.25196838378906 75.80176544189453 80.02691650390625 80.02680206298828 C 75.8018798828125 84.25183868408203 70.88229370117188 87.56881713867188 65.40482330322266 89.88558959960938 C 59.73467636108398 92.28384399414062 53.71063995361328 93.49987030029297 47.5000114440918 93.49987030029297 Z" stroke="none"/>
                                        <path d="M 47.5000114440918 3 C 41.49122619628906 3 35.66378021240234 4.1761474609375 30.17951965332031 6.495796203613281 C 24.880859375 8.7369384765625 20.12153625488281 11.94596862792969 16.03376770019531 16.03373718261719 C 11.94598388671875 20.12149047851562 8.736968994140625 24.88081359863281 6.495811462402344 30.17947387695312 C 4.176162719726562 35.66371917724609 3.000007629394531 41.49116516113281 3.000007629394531 47.49993515014648 C 3.000007629394531 53.50870513916016 4.176162719726562 59.33615112304688 6.495811462402344 64.82039642333984 C 8.736968994140625 70.11905670166016 11.94598388671875 74.87837982177734 16.03376770019531 78.96613311767578 C 20.12153625488281 83.05390167236328 24.880859375 86.26293182373047 30.17951965332031 88.50407409667969 C 35.66378021240234 90.82372283935547 41.49122619628906 91.99987030029297 47.5000114440918 91.99987030029297 C 53.50879669189453 91.99987030029297 59.33624267578125 90.82372283935547 64.82050323486328 88.50407409667969 C 70.11916351318359 86.26293182373047 74.87848663330078 83.05390167236328 78.96625518798828 78.96613311767578 C 83.05403900146484 74.87837982177734 86.2630615234375 70.11905670166016 88.50421142578125 64.82039642333984 C 90.82386016845703 59.33615112304688 92.00001525878906 53.50870513916016 92.00001525878906 47.49993515014648 C 92.00001525878906 41.49116516113281 90.82386016845703 35.66371917724609 88.50421142578125 30.17947387695312 C 86.2630615234375 24.88081359863281 83.05403900146484 20.12149047851562 78.96625518798828 16.03373718261719 C 74.87848663330078 11.94596862792969 70.11916351318359 8.7369384765625 64.82050323486328 6.495796203613281 C 59.33624267578125 4.1761474609375 53.50879669189453 3 47.5000114440918 3 M 47.5000114440918 0 C 73.73353576660156 0 95.00001525878906 21.26644134521484 95.00001525878906 47.49993515014648 C 95.00001525878906 73.73342895507812 73.73353576660156 94.99987030029297 47.5000114440918 94.99987030029297 C 21.26648712158203 94.99987030029297 7.62939453125e-06 73.73342895507812 7.62939453125e-06 47.49993515014648 C 7.62939453125e-06 21.26644134521484 21.26648712158203 0 47.5000114440918 0 Z" stroke="none" fill="#453179"/>
                                      </g>
                                    </g>
                                  </g>
                                </g>
                              </g>
                            </g>
                          </g>
                        </g>
                      </g>
                    </g>
                  </g>
                </g>
              </g>
            </g>
          </g>
        </g>
      </g>
    </g>
    <g id="maestro_5_" data-name="maestro (5)" transform="translate(819 1507.774)">
      <g id="Grupo_1223791" data-name="Grupo 1223791" transform="translate(0.92 5.146)">
        <g id="Grupo_1223790" data-name="Grupo 1223790">
          <g id="Grupo_1223789" data-name="Grupo 1223789">
            <g id="Grupo_1223767" data-name="Grupo 1223767" transform="translate(0 17.183)">
              <path id="Trazado_1210497" data-name="Trazado 1210497" d="M25.252,176.5H8.77a1.27,1.27,0,0,1-1.27-1.27V153.077a1.27,1.27,0,0,1,1.27-1.27H25.252a1.27,1.27,0,0,1,1.27,1.27v22.152A1.27,1.27,0,0,1,25.252,176.5Z" transform="translate(-7.5 -151.807)" fill="#f3eae6"/>
              <path id="Trazado_1210498" data-name="Trazado 1210498" d="M118.315,153.083v22.145a1.27,1.27,0,0,1-1.267,1.273h-4.92a1.269,1.269,0,0,0,1.267-1.273V153.083a1.269,1.269,0,0,0-1.267-1.273h4.92A1.27,1.27,0,0,1,118.315,153.083Z" transform="translate(-99.293 -151.81)" fill="#e0d3ce"/>
              <g id="Grupo_1223766" data-name="Grupo 1223766" transform="translate(3.888 6.121)">
                <g id="Grupo_1223765" data-name="Grupo 1223765" transform="translate(1.953)">
                  <path id="Trazado_1210499" data-name="Trazado 1210499" d="M55.679,201.847a.6.6,0,0,0-.42.421,3.894,3.894,0,0,0,.995,3.774,3.853,3.853,0,0,0,3.757,1,.6.6,0,0,0,.42-.421,3.894,3.894,0,0,0-.995-3.774A3.853,3.853,0,0,0,55.679,201.847Z" transform="translate(-55.122 -201.709)" fill="#31a7fb"/>
                </g>
                <path id="Trazado_1210500" data-name="Trazado 1210500" d="M50.518,239.582c0,2.821-1.6,5.738-5.66,5.738s-5.66-2.917-5.66-5.738,2.534-3.847,5.66-3.847S50.518,236.761,50.518,239.582Z" transform="translate(-39.198 -231.561)" fill="#e33c53"/>
                <path id="Trazado_1210501" data-name="Trazado 1210501" d="M83.963,239.58c0,2.821-1.6,5.739-5.66,5.739a7.469,7.469,0,0,1-.983-.062,6.059,6.059,0,0,0,3.341-5.778,3.766,3.766,0,0,0-2.771-3.739c.136,0,.274-.006.413-.006C81.429,235.733,83.963,236.759,83.963,239.58Z" transform="translate(-72.643 -231.56)" fill="#ab283a"/>
              </g>
            </g>
            <g id="Grupo_1223788" data-name="Grupo 1223788" transform="translate(8.527)">
              <g id="Grupo_1223787" data-name="Grupo 1223787">
                <g id="Grupo_1223786" data-name="Grupo 1223786">
                  <g id="Grupo_1223782" data-name="Grupo 1223782" transform="translate(8.653)">
                    <g id="Grupo_1223781" data-name="Grupo 1223781">
                      <g id="Grupo_1223768" data-name="Grupo 1223768" transform="translate(0.894 15.113)">
                        <path id="Trazado_1210502" data-name="Trazado 1210502" d="M187.242,134.936H164.427c0,10.208-9.579,10.269-9.579,16.829a5.593,5.593,0,0,0,5.58,5.605H191.24a5.593,5.593,0,0,0,5.58-5.605C196.821,145.205,187.242,145.144,187.242,134.936Z" transform="translate(-154.848 -134.936)" fill="#a64b35"/>
                        <path id="Trazado_1210503" data-name="Trazado 1210503" d="M393.844,151.763a5.593,5.593,0,0,1-5.581,5.605h-4.847A5.594,5.594,0,0,0,389,151.763c0-6.561-9.579-6.622-9.579-16.83h4.848C384.266,145.141,393.844,145.2,393.844,151.763Z" transform="translate(-351.871 -134.933)" fill="#8b3d2a"/>
                      </g>
                      <g id="Grupo_1223769" data-name="Grupo 1223769" transform="translate(0 30.987)">
                        <path id="Trazado_1210504" data-name="Trazado 1210504" d="M186.4,277.037c-4.671-11.786-13.518-12.414-14.435-12.691h-5.027c-.917.276-9.764.9-14.435,12.691l-4.944,12.507h17.508l4.408-.615,4.376.615h17.493Z" transform="translate(-147.556 -264.346)" fill="#31a7fb"/>
                        <path id="Trazado_1210505" data-name="Trazado 1210505" d="M329.929,289.541h-5.105s-.326-.906-.657-1.743l-4.254-10.764c-4.605-11.62-13.27-12.395-14.391-12.679l0-.012h5.027c.918.276,9.765.905,14.436,12.69L329.24,287.8Z" transform="translate(-286.144 -264.344)" fill="#1c96f9"/>
                        <path id="Trazado_1210506" data-name="Trazado 1210506" d="M282.3,289.557c2.37-8.863,2.33-23.94,2.33-23.94v-.031a19.081,19.081,0,0,0-4.216-1.24h-5.027a19.075,19.075,0,0,0-4.216,1.24v.031s-.031,15.077,2.345,23.94l4.385-.615Z" transform="translate(-256.005 -264.346)" fill="#f69583"/>
                        <path id="Trazado_1210507" data-name="Trazado 1210507" d="M278.388,307.61a16.386,16.386,0,0,1-6.661-1.288c.154,5.069.655,14.012,2.276,20.061h8.784c1.618-6.05,2.112-14.993,2.264-20.062A16.383,16.383,0,0,1,278.388,307.61Z" transform="translate(-256.496 -301.171)" fill="#f3eae6"/>
                        <path id="Trazado_1210508" data-name="Trazado 1210508" d="M332.858,306.319c-.151,5.07-.647,14.012-2.264,20.062h-4.376c1.5-5.612,2.034-13.711,2.225-18.9A14.826,14.826,0,0,0,332.858,306.319Z" transform="translate(-304.302 -301.17)" fill="#e0d3ce"/>
                      </g>
                      <g id="Grupo_1223780" data-name="Grupo 1223780" transform="translate(8.121)">
                        <g id="Grupo_1223777" data-name="Grupo 1223777" transform="translate(0 9.509)">
                          <g id="Grupo_1223776" data-name="Grupo 1223776">
                            <g id="Grupo_1223772" data-name="Grupo 1223772" transform="translate(0 4.632)">
                              <g id="Grupo_1223770" data-name="Grupo 1223770" transform="translate(21.018)">
                                <ellipse id="Elipse_12704" data-name="Elipse 12704" cx="3.263" cy="3.202" rx="3.263" ry="3.202" fill="#f69583"/>
                              </g>
                              <g id="Grupo_1223771" data-name="Grupo 1223771">
                                <ellipse id="Elipse_12705" data-name="Elipse 12705" cx="3.263" cy="3.202" rx="3.263" ry="3.202" fill="#fdb0a0"/>
                              </g>
                            </g>
                            <g id="Grupo_1223774" data-name="Grupo 1223774" transform="translate(11.258 15.819)">
                              <g id="Grupo_1223773" data-name="Grupo 1223773">
                                <path id="Trazado_1210509" data-name="Trazado 1210509" d="M305.537,218.206h5.027v7.546h-5.027Z" transform="translate(-305.537 -218.206)" fill="#f69583"/>
                              </g>
                            </g>
                            <g id="Grupo_1223775" data-name="Grupo 1223775" transform="translate(4 0.001)">
                              <path id="Trazado_1210510" data-name="Trazado 1210510" d="M256.138,109.27a9.772,9.772,0,0,1-9.772-9.772V89.25H265.91V99.5A9.772,9.772,0,0,1,256.138,109.27Z" transform="translate(-246.366 -89.25)" fill="#ffcec0"/>
                            </g>
                            <path id="Trazado_1210511" data-name="Trazado 1210511" d="M318.723,89.245v10.2a9.807,9.807,0,0,1-7.9,9.637,9.69,9.69,0,0,0,1.865.179,9.794,9.794,0,0,0,9.772-9.816v-10.2Z" transform="translate(-298.913 -89.245)" fill="#fdb0a0"/>
                          </g>
                        </g>
                        <g id="Grupo_1223779" data-name="Grupo 1223779" transform="translate(0.934)">
                          <g id="Grupo_1223778" data-name="Grupo 1223778">
                            <path id="Trazado_1210512" data-name="Trazado 1210512" d="M229.39,26.852h-7.384a.635.635,0,0,1-.635-.635V21.06a9.333,9.333,0,0,1,9.333-9.333h5.255v8.557A6.569,6.569,0,0,1,229.39,26.852Z" transform="translate(-221.371 -11.727)" fill="#d46a50"/>
                            <path id="Trazado_1210513" data-name="Trazado 1210513" d="M346.866,26.852h3.884a.635.635,0,0,0,.635-.635V21.06a9.333,9.333,0,0,0-9.333-9.333H340.3v8.557A6.569,6.569,0,0,0,346.866,26.852Z" transform="translate(-325.709 -11.727)" fill="#d46a50"/>
                            <path id="Trazado_1210514" data-name="Trazado 1210514" d="M351.382,21.084v5.134a.635.635,0,0,1-.633.637h-3.9a6.468,6.468,0,0,1-.695-.037.634.634,0,0,0,.422-.6V21.084a9.354,9.354,0,0,0-6.281-8.847V11.73h1.775A9.334,9.334,0,0,1,351.382,21.084Z" transform="translate(-325.707 -11.73)" fill="#a64b35"/>
                          </g>
                        </g>
                      </g>
                    </g>
                  </g>
                  <g id="Grupo_1223785" data-name="Grupo 1223785" transform="translate(0 35.236)">
                    <g id="Grupo_1223784" data-name="Grupo 1223784">
                      <path id="Trazado_1210515" data-name="Trazado 1210515" d="M94.766,323.67H78.284a1.27,1.27,0,0,1-1.27-1.27V300.248a1.27,1.27,0,0,1,1.27-1.27H94.766a1.27,1.27,0,0,1,1.27,1.27V322.4A1.27,1.27,0,0,1,94.766,323.67Z" transform="translate(-77.014 -298.978)" fill="#f3eae6"/>
                      <g id="Grupo_1223783" data-name="Grupo 1223783" transform="translate(12.835 0)">
                        <path id="Trazado_1210516" data-name="Trazado 1210516" d="M187.837,300.253V322.4a1.269,1.269,0,0,1-1.267,1.273H181.65a1.27,1.27,0,0,0,1.267-1.273V300.253a1.27,1.27,0,0,0-1.267-1.273h4.919A1.269,1.269,0,0,1,187.837,300.253Z" transform="translate(-181.65 -298.98)" fill="#e0d3ce"/>
                      </g>
                    </g>
                  </g>
                </g>
              </g>
            </g>
          </g>
        </g>
      </g>
      <g id="Grupo_1223792" data-name="Grupo 1223792" transform="translate(0 4.226)">
        <path id="Trazado_1210517" data-name="Trazado 1210517" d="M62.74,60.993,57.8,48.485a26.7,26.7,0,0,0-2.5-4.871h.095a6.52,6.52,0,0,0,6.5-6.525c0-3.342-2.2-5.233-4.321-7.061A15.885,15.885,0,0,1,53.457,25.4a4.073,4.073,0,0,0,.273-5.532,1.549,1.549,0,0,0,.02-.235V14.5a10.3,10.3,0,0,0-1.392-5.172.92.92,0,1,0-1.59.925A8.457,8.457,0,0,1,51.91,14.5v4.851H48.3a5.655,5.655,0,0,1-5.634-5.663V6.066h.855a8.317,8.317,0,0,1,4.722,1.462A.92.92,0,0,0,49.28,6.01a10.149,10.149,0,0,0-5.762-1.784H36.488A10.265,10.265,0,0,0,26.235,14.48v5.157a1.55,1.55,0,0,0,.02.234,4.071,4.071,0,0,0,.259,5.517,11.132,11.132,0,0,1-1.888,2.588.92.92,0,0,0,1.333,1.269,13.016,13.016,0,0,0,2.118-2.875,4.22,4.22,0,0,0,1.362.24,10.726,10.726,0,0,0,7.121,8.42v.353a17.608,17.608,0,0,0-8.483,4.264,2.175,2.175,0,0,0-.876-.184H20.862v-5.3a12.568,12.568,0,0,1,1.986-2.086.92.92,0,1,0-1.217-1.38c-.256.226-.514.46-.769.7V23.6a2.193,2.193,0,0,0-2.187-2.193H2.187A2.193,2.193,0,0,0,0,23.6V33.84a.92.92,0,1,0,1.84,0V23.6a.351.351,0,0,1,.347-.353H18.674a.351.351,0,0,1,.347.353v10.29h0v5.568H16.453a7.586,7.586,0,0,0,.595-2.991c0-2.317-1.4-3.877-3.934-4.483A4.79,4.79,0,0,0,7.076,27.7a1.524,1.524,0,0,0-1.065,1.068,4.835,4.835,0,0,0,.476,3.675,4.2,4.2,0,0,0-2.6,4.028,7.192,7.192,0,0,0,1.239,4.15,5.831,5.831,0,0,0,3.4,2.278v3.2H2.187a.351.351,0,0,1-.347-.353V37.934a.92.92,0,1,0-1.84,0v7.814a2.193,2.193,0,0,0,2.187,2.193h6.34V63.8a2.192,2.192,0,0,0,2.19,2.19H27.2a2.193,2.193,0,0,0,2.19-2.19V41.652a2.184,2.184,0,0,0-.1-.641,15.774,15.774,0,0,1,3.058-2.56c.008.688.026,1.684.063,2.893a.018.018,0,0,0,0,0c.042,1.361.108,2.991.212,4.759a81.51,81.51,0,0,0,2.093,15.478.92.92,0,1,0,1.777-.476c-1.452-5.418-1.993-13.3-2.194-18.463a19.5,19.5,0,0,0,11.384,0c-.2,5.162-.733,13.044-2.183,18.465a.92.92,0,1,0,1.778.475c1.97-7.369,2.3-18.733,2.351-22.739a16.519,16.519,0,0,1,5.062,4.3.917.917,0,0,0,.163.21,23.73,23.73,0,0,1,3.23,5.807l4.943,12.507a.92.92,0,0,0,1.712-.676Zm-12.056-39.8H52.2a1.56,1.56,0,0,0,.217-.017,2.239,2.239,0,0,1,.431,1.314,2.309,2.309,0,0,1-2.16,2.273V21.191ZM28.074,14.48a8.423,8.423,0,0,1,8.413-8.414h4.335V13.7a5.655,5.655,0,0,1-5.649,5.649h-7.1ZM29.3,24.762a2.369,2.369,0,0,1-1.123-.38l-.007-.005a2.266,2.266,0,0,1-1.029-1.888,2.239,2.239,0,0,1,.431-1.315,1.558,1.558,0,0,0,.218.017H29.3v3.57Zm1.84.142V21.191h4.033a7.494,7.494,0,0,0,6.57-3.9,7.475,7.475,0,0,0,6.553,3.9h.547V24.9a8.852,8.852,0,1,1-17.7,0Zm-23.4,4.528a2.949,2.949,0,0,1,3.48,2.292q-.367-.02-.756-.02a12.1,12.1,0,0,0-2.146.178A2.989,2.989,0,0,1,7.743,29.432ZM5.728,36.471A2.332,2.332,0,0,1,6.936,34.28a7.1,7.1,0,0,1,3.532-.736A7.1,7.1,0,0,1,14,34.28a2.332,2.332,0,0,1,1.208,2.191,5.377,5.377,0,0,1-.838,2.991H10.717A2.194,2.194,0,0,0,8.626,41C7.426,40.579,5.728,39.456,5.728,36.471ZM27.549,63.8a.351.351,0,0,1-.35.35H10.717a.35.35,0,0,1-.35-.35V41.652a.35.35,0,0,1,.35-.35H27.2a.35.35,0,0,1,.35.35V63.8Zm18.2-23.138a16.072,16.072,0,0,1-5.758.986,16.075,16.075,0,0,1-5.756-.985c-.038-1.377-.049-2.4-.052-2.909.633-.164,1.394-.316,2.374-.5V38.57a.92.92,0,0,0,1.84,0V35.476a10.743,10.743,0,0,0,3.187,0V38.57a.92.92,0,0,0,1.84,0v-1.3A17.059,17.059,0,0,1,45.8,38C45.794,38.552,45.782,39.478,45.75,40.666Zm3.844-2.8a17.311,17.311,0,0,0-6.169-2.483V35.03a10.726,10.726,0,0,0,7.121-8.42,4.219,4.219,0,0,0,1.345-.234,17.824,17.824,0,0,0,4.473,5.047c2.057,1.771,3.682,3.169,3.682,5.667a4.678,4.678,0,0,1-4.661,4.685H53.938A18.879,18.879,0,0,0,49.595,37.865Z" transform="translate(0 -4.226)"/>
        <path id="Trazado_1210518" data-name="Trazado 1210518" d="M319.447,166.963a.92.92,0,0,0,.92-.92V164.7a.92.92,0,0,0-1.84,0v1.344A.92.92,0,0,0,319.447,166.963Z" transform="translate(-279.455 -144.207)"/>
        <path id="Trazado_1210519" data-name="Trazado 1210519" d="M304.638,200.019a.92.92,0,1,0-1.3-1.3,2.623,2.623,0,0,1-3.723,0,.92.92,0,1,0-1.3,1.3,4.463,4.463,0,0,0,6.331,0Z" transform="translate(-261.48 -174.625)"/>
        <path id="Trazado_1210520" data-name="Trazado 1210520" d="M281.741,154.818a.922.922,0,0,0-.954.885l-.01.255a.92.92,0,0,0,.885.954h.035a.92.92,0,0,0,.919-.885l.01-.255A.92.92,0,0,0,281.741,154.818Z" transform="translate(-246.335 -136.345)"/>
        <path id="Trazado_1210521" data-name="Trazado 1210521" d="M357.129,156.914h.035a.92.92,0,0,0,.885-.954l-.01-.255a.92.92,0,1,0-1.839.069l.01.255A.92.92,0,0,0,357.129,156.914Z" transform="translate(-312.506 -136.347)"/>
        <path id="Trazado_1210522" data-name="Trazado 1210522" d="M127.035,334.457l.044,0,.286.7a.92.92,0,0,0,1.7-.694l-3.249-7.983a.92.92,0,0,0-.851-.573h0a.92.92,0,0,0-.851.572l-3.269,7.991a.92.92,0,1,0,1.7.7l.291-.712.039,0Zm-2.07-5.194,1.365,3.355h-2.738Z" transform="translate(-105.963 -286.449)"/>
        <path id="Trazado_1210523" data-name="Trazado 1210523" d="M105.871,421.143l-.631.634-.039-.039a.92.92,0,1,0-1.3,1.3l.691.694a.92.92,0,0,0,1.3,0l1.283-1.288a.92.92,0,0,0-1.3-1.3Z" transform="translate(-90.918 -369.764)"/>
        <path id="Trazado_1210524" data-name="Trazado 1210524" d="M151.339,426.123h-5.683a.92.92,0,1,0,0,1.84h5.683a.92.92,0,1,0,0-1.84Z" transform="translate(-126.982 -374.371)"/>
        <path id="Trazado_1210525" data-name="Trazado 1210525" d="M105.871,452.142l-.631.634-.039-.039a.92.92,0,1,0-1.3,1.3l.691.694a.92.92,0,0,0,1.3,0l1.283-1.288a.92.92,0,0,0-1.3-1.3Z" transform="translate(-90.918 -396.961)"/>
        <path id="Trazado_1210526" data-name="Trazado 1210526" d="M151.339,457.123h-5.683a.92.92,0,1,0,0,1.84h5.683a.92.92,0,1,0,0-1.84Z" transform="translate(-126.982 -401.568)"/>
      </g>
    </g>
  </g>
</svg>
