<svg xmlns="http://www.w3.org/2000/svg" xmlns:xlink="http://www.w3.org/1999/xlink" width="113" height="113" viewBox="0 0 113 113">
  <defs>
    <filter id="Trazado_982547" x="0" y="0" width="113" height="113" filterUnits="userSpaceOnUse">
      <feOffset dy="3" input="SourceAlpha"/>
      <feGaussianBlur stdDeviation="3" result="blur"/>
      <feFlood flood-opacity="0.161"/>
      <feComposite operator="in" in2="blur"/>
      <feComposite in="SourceGraphic"/>
    </filter>
  </defs>
  <g id="Grupo_1223796" data-name="Grupo 1223796" transform="translate(-1112 -1489)">
    <g id="Grupo_1208038" data-name="Grupo 1208038" transform="translate(0 -4138.425)">
      <g id="Grupo_1202104" data-name="Grupo 1202104" transform="translate(0 -1149.226)">
        <g id="Grupo_1201923" data-name="Grupo 1201923" transform="translate(-4174.49 4856.378)">
          <g id="Grupo_1176928" data-name="Grupo 1176928" transform="translate(5295.49 1926.273)">
            <g id="Grupo_1172322" data-name="Grupo 1172322" transform="translate(0 0)">
              <g id="Grupo_1164700" data-name="Grupo 1164700">
                <g id="Grupo_1160931" data-name="Grupo 1160931">
                  <g id="Grupo_1160749" data-name="Grupo 1160749">
                    <g id="Grupo_1158891" data-name="Grupo 1158891">
                      <g id="Grupo_1157406" data-name="Grupo 1157406">
                        <g id="Grupo_1155793" data-name="Grupo 1155793">
                          <g id="Grupo_1154704" data-name="Grupo 1154704">
                            <g id="Grupo_1150790" data-name="Grupo 1150790">
                              <g id="Grupo_1154214" data-name="Grupo 1154214">
                                <g id="Grupo_1152583" data-name="Grupo 1152583">
                                  <g id="Grupo_1146973" data-name="Grupo 1146973">
                                    <g id="Grupo_1146954" data-name="Grupo 1146954">
                                      <g transform="matrix(1, 0, 0, 1, -9, -6)" filter="url(#Trazado_982547)">
                                        <g id="Trazado_982547-2" data-name="Trazado 982547" transform="translate(9 6)" fill="#d9d5e3">
                                          <path d="M 47.5000114440918 93.49987030029297 C 41.28938293457031 93.49987030029297 35.26534652709961 92.28384399414062 29.5951976776123 89.88558959960938 C 24.11773109436035 87.56881713867188 19.19814491271973 84.25183868408203 14.97310447692871 80.02680206298828 C 10.74805164337158 75.80176544189453 7.43107795715332 70.88218688964844 5.114304542541504 65.40472412109375 C 2.716038227081299 59.73458862304688 1.500011444091797 53.71054840087891 1.500011444091797 47.49993515014648 C 1.500011444091797 41.28932189941406 2.716038227081299 35.26528167724609 5.114304542541504 29.59514808654785 C 7.43107795715332 24.1176815032959 10.74805164337158 19.1981086730957 14.97310447692871 14.97306823730469 C 19.19814491271973 10.74802875518799 24.11773109436035 7.431055068969727 29.5951976776123 5.11428165435791 C 35.26534652709961 2.716028451919556 41.28938293457031 1.500001788139343 47.5000114440918 1.500001788139343 C 53.71063995361328 1.500001788139343 59.73467636108398 2.716028451919556 65.40482330322266 5.11428165435791 C 70.88229370117188 7.431055068969727 75.8018798828125 10.74802875518799 80.02691650390625 14.97306823730469 C 84.25196838378906 19.1981086730957 87.56894683837891 24.1176815032959 89.88571929931641 29.59514808654785 C 92.28398132324219 35.26528167724609 93.50001525878906 41.28932189941406 93.50001525878906 47.49993515014648 C 93.50001525878906 53.71054840087891 92.28398132324219 59.73458862304688 89.88571929931641 65.40472412109375 C 87.56894683837891 70.88218688964844 84.25196838378906 75.80176544189453 80.02691650390625 80.02680206298828 C 75.8018798828125 84.25183868408203 70.88229370117188 87.56881713867188 65.40482330322266 89.88558959960938 C 59.73467636108398 92.28384399414062 53.71063995361328 93.49987030029297 47.5000114440918 93.49987030029297 Z" stroke="none"/>
                                          <path d="M 47.5000114440918 3 C 41.49122619628906 3 35.66378021240234 4.1761474609375 30.17951965332031 6.495796203613281 C 24.880859375 8.7369384765625 20.12153625488281 11.94596862792969 16.03376770019531 16.03373718261719 C 11.94598388671875 20.12149047851562 8.736968994140625 24.88081359863281 6.495811462402344 30.17947387695312 C 4.176162719726562 35.66371917724609 3.000007629394531 41.49116516113281 3.000007629394531 47.49993515014648 C 3.000007629394531 53.50870513916016 4.176162719726562 59.33615112304688 6.495811462402344 64.82039642333984 C 8.736968994140625 70.11905670166016 11.94598388671875 74.87837982177734 16.03376770019531 78.96613311767578 C 20.12153625488281 83.05390167236328 24.880859375 86.26293182373047 30.17951965332031 88.50407409667969 C 35.66378021240234 90.82372283935547 41.49122619628906 91.99987030029297 47.5000114440918 91.99987030029297 C 53.50879669189453 91.99987030029297 59.33624267578125 90.82372283935547 64.82050323486328 88.50407409667969 C 70.11916351318359 86.26293182373047 74.87848663330078 83.05390167236328 78.96625518798828 78.96613311767578 C 83.05403900146484 74.87837982177734 86.2630615234375 70.11905670166016 88.50421142578125 64.82039642333984 C 90.82386016845703 59.33615112304688 92.00001525878906 53.50870513916016 92.00001525878906 47.49993515014648 C 92.00001525878906 41.49116516113281 90.82386016845703 35.66371917724609 88.50421142578125 30.17947387695312 C 86.2630615234375 24.88081359863281 83.05403900146484 20.12149047851562 78.96625518798828 16.03373718261719 C 74.87848663330078 11.94596862792969 70.11916351318359 8.7369384765625 64.82050323486328 6.495796203613281 C 59.33624267578125 4.1761474609375 53.50879669189453 3 47.5000114440918 3 M 47.5000114440918 0 C 73.73353576660156 0 95.00001525878906 21.26644134521484 95.00001525878906 47.49993515014648 C 95.00001525878906 73.73342895507812 73.73353576660156 94.99987030029297 47.5000114440918 94.99987030029297 C 21.26648712158203 94.99987030029297 7.62939453125e-06 73.73342895507812 7.62939453125e-06 47.49993515014648 C 7.62939453125e-06 21.26644134521484 21.26648712158203 0 47.5000114440918 0 Z" stroke="none" fill="#453179"/>
                                        </g>
                                      </g>
                                    </g>
                                  </g>
                                </g>
                              </g>
                            </g>
                          </g>
                        </g>
                      </g>
                    </g>
                  </g>
                </g>
              </g>
            </g>
          </g>
        </g>
      </g>
    </g>
    <g id="colegio_1_" data-name="colegio (1)" transform="translate(1136 1480.943)">
      <g id="Grupo_1223794" data-name="Grupo 1223794" transform="translate(0.948 29.006)">
        <path id="Trazado_1210527" data-name="Trazado 1210527" d="M256,35.557h7.1v5.07H256Z" transform="translate(-224.567 -35.557)" fill="#ff8086"/>
        <path id="Trazado_1210528" data-name="Trazado 1210528" d="M256,35.557h3.042v5.07H256Z" transform="translate(-224.567 -35.557)" fill="#e5646e"/>
        <path id="Trazado_1210529" data-name="Trazado 1210529" d="M66.31,179.847H11.556L7.5,188.973H70.366Z" transform="translate(-7.5 -161.595)" fill="#ff8086"/>
        <path id="Trazado_1210530" data-name="Trazado 1210530" d="M8.852,227.944,7.5,230.986H70.366l-1.352-3.042Z" transform="translate(-7.5 -203.609)" fill="#e5646e"/>
        <path id="Trazado_1210531" data-name="Trazado 1210531" d="M82.343,168.349H23.532V139.958H36.714l16.224-16.224,16.224,16.224H82.343Z" transform="translate(-21.504 -112.58)" fill="#ffc269"/>
        <path id="Trazado_1210532" data-name="Trazado 1210532" d="M207.9,372.234h12.168v11.154H207.9Z" transform="translate(-182.554 -329.647)" fill="#c38c66"/>
        <circle id="Elipse_12706" data-name="Elipse 12706" cx="6.084" cy="6.084" r="6.084" transform="translate(25.349 23.321)" fill="#fff0af"/>
        <circle id="Elipse_12707" data-name="Elipse 12707" cx="3.042" cy="3.042" r="3.042" transform="translate(28.391 26.363)" fill="#fff"/>
        <path id="Trazado_1210533" data-name="Trazado 1210533" d="M191.871,444.379h16.224v4.056H191.871Z" transform="translate(-168.55 -392.666)" fill="#c8c5c9"/>
        <path id="Trazado_1210534" data-name="Trazado 1210534" d="M69.161,139.958,52.937,123.734,36.714,139.958H23.532v28.391h3.042V145.028A2.028,2.028,0,0,1,28.6,143h7.842a4.056,4.056,0,0,0,2.884-1.2l13.61-13.76L66.547,141.8A4.056,4.056,0,0,0,69.43,143H82.343v-3.042Z" transform="translate(-21.504 -112.58)" fill="#ffa95f"/>
        <path id="Trazado_1210535" data-name="Trazado 1210535" d="M344.177,292.073h14.2v6.084h-14.2Z" transform="translate(-301.59 -259.626)" fill="#edf4ff"/>
        <path id="Trazado_1210536" data-name="Trazado 1210536" d="M347.22,293.087v-1.014h-3.042v6.084h14.2v-3.042h-9.126A2.028,2.028,0,0,1,347.22,293.087Z" transform="translate(-301.591 -259.626)" fill="#dbeaff"/>
        <path id="Trazado_1210537" data-name="Trazado 1210537" d="M344.177,372.234h14.2v6.084h-14.2Z" transform="translate(-301.59 -329.647)" fill="#edf4ff"/>
        <path id="Trazado_1210538" data-name="Trazado 1210538" d="M347.22,373.248v-1.014h-3.042v6.084h14.2v-3.042h-9.126A2.028,2.028,0,0,1,347.22,373.248Z" transform="translate(-301.591 -329.647)" fill="#dbeaff"/>
        <path id="Trazado_1210539" data-name="Trazado 1210539" d="M55.6,292.073h14.2v6.084H55.6Z" transform="translate(-49.513 -259.626)" fill="#edf4ff"/>
        <path id="Trazado_1210540" data-name="Trazado 1210540" d="M58.639,293.087v-1.014H55.6v6.084h14.2v-3.042H60.667A2.028,2.028,0,0,1,58.639,293.087Z" transform="translate(-49.513 -259.626)" fill="#dbeaff"/>
        <path id="Trazado_1210541" data-name="Trazado 1210541" d="M55.6,372.234h14.2v4.313H55.6Z" transform="translate(-49.513 -329.647)" fill="#edf4ff"/>
        <path id="Trazado_1210542" data-name="Trazado 1210542" d="M58.639,373.248v-1.014H55.6v6.084h14.2v-3.042H60.667A2.028,2.028,0,0,1,58.639,373.248Z" transform="translate(-49.513 -329.647)" fill="#dbeaff"/>
      </g>
      <g id="Grupo_1223795" data-name="Grupo 1223795" transform="translate(0 28.057)">
        <path id="Trazado_1210543" data-name="Trazado 1210543" d="M63.815,83.825H62.736V57.332h1.079A.949.949,0,0,0,64.682,56l-4.056-9.126a.949.949,0,0,0-.867-.563H39.872L33.33,39.766V35.024H39.48a.949.949,0,0,0,.949-.949v-5.07a.949.949,0,0,0-.949-.949h-7.1a.949.949,0,0,0-.949.949V39.766l-6.542,6.542H5a.949.949,0,0,0-.867.563L.082,56a.949.949,0,0,0,.867,1.334H2.028V83.826H.948a.949.949,0,0,0,0,1.9H63.815a.949.949,0,0,0,0-1.9Zm-25.284-50.7h-5.2V29.954h5.2ZM5.621,48.206H22.993l-7.228,7.228H2.408Zm-1.7,9.126H16.158a.948.948,0,0,0,.671-.278L32.382,41.5,47.934,57.054a.948.948,0,0,0,.671.278h7.1a.949.949,0,0,0,0-1.9H49L41.77,48.206H59.143l3.213,7.228h-2.6a.949.949,0,0,0,0,1.9h1.079V83.826h-19.4V80.718a.949.949,0,0,0-.949-.949H39.414V71.593a.949.949,0,0,0-.949-.949H26.3a.949.949,0,0,0-.949.949V79.77H24.27a.949.949,0,0,0-.949.949v3.107H3.925Zm33.592,15.21V79.77H33.33V72.541ZM31.433,79.77H27.247V72.541h4.186Zm8.112,1.9v2.158H25.219V81.667Z" transform="translate(0 -28.057)"/>
        <path id="Trazado_1210544" data-name="Trazado 1210544" d="M207.436,226.492a7.033,7.033,0,1,0-7.033-7.033,7.04,7.04,0,0,0,7.033,7.033Zm0-12.168a5.135,5.135,0,1,1-5.135,5.135,5.141,5.141,0,0,1,5.135-5.135Z" transform="translate(-175.054 -189.106)"/>
        <path id="Trazado_1210545" data-name="Trazado 1210545" d="M249.449,257.446a.949.949,0,0,0,.949-.949v-1.442l1.5-.752a.949.949,0,1,0-.849-1.7l-2.028,1.014a.949.949,0,0,0-.524.849V256.5A.949.949,0,0,0,249.449,257.446Z" transform="translate(-217.067 -224.116)"/>
        <path id="Trazado_1210546" data-name="Trazado 1210546" d="M63.241,364.734h-14.2a.949.949,0,0,0-.949.949v6.084a.949.949,0,0,0,.949.949h2.028a.949.949,0,1,0,0-1.9h-1.08v-4.187h5.2v4.187H55.13a.949.949,0,1,0,0,1.9h8.112a.949.949,0,0,0,.949-.949v-6.084A.949.949,0,0,0,63.241,364.734Zm-.949,6.084h-5.2v-4.187h5.2Z" transform="translate(-42.013 -322.147)"/>
        <path id="Trazado_1210547" data-name="Trazado 1210547" d="M63.241,284.573h-14.2a.949.949,0,0,0-.949.949v6.084a.949.949,0,0,0,.949.949h14.2a.949.949,0,0,0,.949-.949v-6.084A.949.949,0,0,0,63.241,284.573Zm-13.247,1.9h5.2v4.186h-5.2Zm12.3,4.186h-5.2V286.47h5.2Z" transform="translate(-42.013 -252.126)"/>
        <path id="Trazado_1210548" data-name="Trazado 1210548" d="M337.626,372.715h14.2a.949.949,0,0,0,.949-.949v-6.084a.949.949,0,0,0-.949-.949h-14.2a.949.949,0,0,0-.949.949v6.084A.949.949,0,0,0,337.626,372.715Zm13.247-1.9h-5.2v-4.187h5.2Zm-12.3-4.187h5.2v4.187h-5.2Z" transform="translate(-294.09 -322.147)"/>
        <path id="Trazado_1210549" data-name="Trazado 1210549" d="M337.626,292.553h14.2a.949.949,0,0,0,.949-.949v-6.084a.949.949,0,0,0-.949-.949h-14.2a.949.949,0,0,0-.949.949V291.6A.949.949,0,0,0,337.626,292.553Zm13.247-1.9h-5.2v-4.187h5.2Zm-12.3-4.186h5.2v4.186h-5.2Z" transform="translate(-294.09 -252.125)"/>
      </g>
    </g>
  </g>
</svg>
