<svg xmlns="http://www.w3.org/2000/svg" xmlns:xlink="http://www.w3.org/1999/xlink" width="113" height="113" viewBox="0 0 113 113">
  <defs>
    <filter id="Trazado_982547" x="0" y="0" width="113" height="113" filterUnits="userSpaceOnUse">
      <feOffset dy="3" input="SourceAlpha"/>
      <feGaussianBlur stdDeviation="3" result="blur"/>
      <feFlood flood-opacity="0.161"/>
      <feComposite operator="in" in2="blur"/>
      <feComposite in="SourceGraphic"/>
    </filter>
  </defs>
  <g id="Grupo_1223797" data-name="Grupo 1223797" transform="translate(-3740.49 -1489.428)">
    <g id="Grupo_1223345" data-name="Grupo 1223345" transform="translate(2947 -4137.997)">
      <g id="Grupo_1177675" data-name="Grupo 1177675" transform="translate(-4493 3707.152)">
        <g id="Grupo_1176928" data-name="Grupo 1176928" transform="translate(5295.49 1926.273)">
          <g id="Grupo_1172322" data-name="Grupo 1172322" transform="translate(0 0)">
            <g id="Grupo_1164700" data-name="Grupo 1164700">
              <g id="Grupo_1160931" data-name="Grupo 1160931">
                <g id="Grupo_1160749" data-name="Grupo 1160749">
                  <g id="Grupo_1158891" data-name="Grupo 1158891">
                    <g id="Grupo_1157406" data-name="Grupo 1157406">
                      <g id="Grupo_1155793" data-name="Grupo 1155793">
                        <g id="Grupo_1154704" data-name="Grupo 1154704">
                          <g id="Grupo_1150790" data-name="Grupo 1150790">
                            <g id="Grupo_1154214" data-name="Grupo 1154214">
                              <g id="Grupo_1152583" data-name="Grupo 1152583">
                                <g id="Grupo_1146973" data-name="Grupo 1146973">
                                  <g id="Grupo_1146954" data-name="Grupo 1146954">
                                    <g transform="matrix(1, 0, 0, 1, -9, -6)" filter="url(#Trazado_982547)">
                                      <g id="Trazado_982547-2" data-name="Trazado 982547" transform="translate(9 6)" fill="#d9d5e3">
                                        <path d="M 47.5000114440918 93.49987030029297 C 41.28938293457031 93.49987030029297 35.26534652709961 92.28384399414062 29.5951976776123 89.88558959960938 C 24.11773109436035 87.56881713867188 19.19814491271973 84.25183868408203 14.97310447692871 80.02680206298828 C 10.74805164337158 75.80176544189453 7.43107795715332 70.88218688964844 5.114304542541504 65.40472412109375 C 2.716038227081299 59.73458862304688 1.500011444091797 53.71054840087891 1.500011444091797 47.49993515014648 C 1.500011444091797 41.28932189941406 2.716038227081299 35.26528167724609 5.114304542541504 29.59514808654785 C 7.43107795715332 24.1176815032959 10.74805164337158 19.1981086730957 14.97310447692871 14.97306823730469 C 19.19814491271973 10.74802875518799 24.11773109436035 7.431055068969727 29.5951976776123 5.11428165435791 C 35.26534652709961 2.716028451919556 41.28938293457031 1.500001788139343 47.5000114440918 1.500001788139343 C 53.71063995361328 1.500001788139343 59.73467636108398 2.716028451919556 65.40482330322266 5.11428165435791 C 70.88229370117188 7.431055068969727 75.8018798828125 10.74802875518799 80.02691650390625 14.97306823730469 C 84.25196838378906 19.1981086730957 87.56894683837891 24.1176815032959 89.88571929931641 29.59514808654785 C 92.28398132324219 35.26528167724609 93.50001525878906 41.28932189941406 93.50001525878906 47.49993515014648 C 93.50001525878906 53.71054840087891 92.28398132324219 59.73458862304688 89.88571929931641 65.40472412109375 C 87.56894683837891 70.88218688964844 84.25196838378906 75.80176544189453 80.02691650390625 80.02680206298828 C 75.8018798828125 84.25183868408203 70.88229370117188 87.56881713867188 65.40482330322266 89.88558959960938 C 59.73467636108398 92.28384399414062 53.71063995361328 93.49987030029297 47.5000114440918 93.49987030029297 Z" stroke="none"/>
                                        <path d="M 47.5000114440918 3 C 41.49122619628906 3 35.66378021240234 4.1761474609375 30.17951965332031 6.495796203613281 C 24.880859375 8.7369384765625 20.12153625488281 11.94596862792969 16.03376770019531 16.03373718261719 C 11.94598388671875 20.12149047851562 8.736968994140625 24.88081359863281 6.495811462402344 30.17947387695312 C 4.176162719726562 35.66371917724609 3.000007629394531 41.49116516113281 3.000007629394531 47.49993515014648 C 3.000007629394531 53.50870513916016 4.176162719726562 59.33615112304688 6.495811462402344 64.82039642333984 C 8.736968994140625 70.11905670166016 11.94598388671875 74.87837982177734 16.03376770019531 78.96613311767578 C 20.12153625488281 83.05390167236328 24.880859375 86.26293182373047 30.17951965332031 88.50407409667969 C 35.66378021240234 90.82372283935547 41.49122619628906 91.99987030029297 47.5000114440918 91.99987030029297 C 53.50879669189453 91.99987030029297 59.33624267578125 90.82372283935547 64.82050323486328 88.50407409667969 C 70.11916351318359 86.26293182373047 74.87848663330078 83.05390167236328 78.96625518798828 78.96613311767578 C 83.05403900146484 74.87837982177734 86.2630615234375 70.11905670166016 88.50421142578125 64.82039642333984 C 90.82386016845703 59.33615112304688 92.00001525878906 53.50870513916016 92.00001525878906 47.49993515014648 C 92.00001525878906 41.49116516113281 90.82386016845703 35.66371917724609 88.50421142578125 30.17947387695312 C 86.2630615234375 24.88081359863281 83.05403900146484 20.12149047851562 78.96625518798828 16.03373718261719 C 74.87848663330078 11.94596862792969 70.11916351318359 8.7369384765625 64.82050323486328 6.495796203613281 C 59.33624267578125 4.1761474609375 53.50879669189453 3 47.5000114440918 3 M 47.5000114440918 0 C 73.73353576660156 0 95.00001525878906 21.26644134521484 95.00001525878906 47.49993515014648 C 95.00001525878906 73.73342895507812 73.73353576660156 94.99987030029297 47.5000114440918 94.99987030029297 C 21.26648712158203 94.99987030029297 7.62939453125e-06 73.73342895507812 7.62939453125e-06 47.49993515014648 C 7.62939453125e-06 21.26644134521484 21.26648712158203 0 47.5000114440918 0 Z" stroke="none" fill="#453179"/>
                                      </g>
                                    </g>
                                  </g>
                                </g>
                              </g>
                            </g>
                          </g>
                        </g>
                      </g>
                    </g>
                  </g>
                </g>
              </g>
            </g>
          </g>
        </g>
      </g>
    </g>
    <g id="diversidad_1_" data-name="diversidad (1)" transform="translate(3790.796 1536.68)">
      <circle id="Elipse_12708" data-name="Elipse 12708" cx="4.26" cy="4.26" r="4.26" transform="matrix(0.16, -0.987, 0.987, 0.16, 7.474, -9.957)" fill="#f5c956"/>
      <path id="Trazado_1210550" data-name="Trazado 1210550" d="M99.126,105.507a18.885,18.885,0,0,0-5.535,12.619,3.371,3.371,0,0,0,6.737.267,50.186,50.186,0,0,1,4.44-7.243c2.143-2.143,6.972-3.215,9.781-3.215l-2.02-2.26a4.861,4.861,0,0,0-6.538-4.562A18.885,18.885,0,0,0,99.126,105.507Z" transform="translate(-106.329 -112.663)" fill="#ff6e80"/>
      <ellipse id="Elipse_12709" data-name="Elipse 12709" cx="11.278" cy="9.244" rx="11.278" ry="9.244" transform="translate(-26.77 -10.773) rotate(-45)" fill="#fdd1a3"/>
      <path id="Trazado_1210551" data-name="Trazado 1210551" d="M249.034,99.125a18.885,18.885,0,0,0-12.619-5.535,3.371,3.371,0,0,0-.267,6.737,50.186,50.186,0,0,1,7.243,4.44c2.143,2.143,3.215,6.972,3.215,9.781l2.26-2.02a4.861,4.861,0,0,0,4.561-6.538A18.885,18.885,0,0,0,249.034,99.125Z" transform="translate(-229.43 -106.281)" fill="#ffb25a"/>
      <ellipse id="Elipse_12710" data-name="Elipse 12710" cx="9.244" cy="11.278" rx="9.244" ry="11.278" transform="translate(10.143 -13.645) rotate(-45)" fill="#ffd3bc"/>
      <path id="Trazado_1210552" data-name="Trazado 1210552" d="M232.989,97.546a3.361,3.361,0,0,0,3.16,2.781,23.338,23.338,0,0,1,2.517,1.319c1.1-1.213,2.162-3.923,1.78-7.452a19.022,19.022,0,0,0-4.03-.6A3.363,3.363,0,0,0,232.989,97.546Z" transform="translate(-229.43 -106.281)" fill="#ffd3bc"/>
      <path id="Trazado_1210553" data-name="Trazado 1210553" d="M105.508,254.142a18.885,18.885,0,0,0,12.619,5.535,3.371,3.371,0,0,0,.267-6.737,50.182,50.182,0,0,1-7.243-4.44c-2.143-2.143-3.215-6.972-3.215-9.781l-2.26,2.02a4.861,4.861,0,0,0-4.562,6.538A18.886,18.886,0,0,0,105.508,254.142Z" transform="translate(-112.711 -234.491)" fill="#f7e969"/>
      <ellipse id="Elipse_12711" data-name="Elipse 12711" cx="9.244" cy="11.278" rx="9.244" ry="11.278" transform="translate(-26.774 23.265) rotate(-45)" fill="#da9d81"/>
      <path id="Trazado_1210554" data-name="Trazado 1210554" d="M22.6,390.068a10.437,10.437,0,0,0-1.511-1.9,10.008,10.008,0,0,0-2.692-1.946,1.744,1.744,0,0,1-.832-.85,9.9,9.9,0,0,0-2.038-2.888,9.9,9.9,0,0,0-2.888-2.038,1.743,1.743,0,0,1-.85-.832,10.009,10.009,0,0,0-1.946-2.692,10.433,10.433,0,0,0-1.9-1.511c-1.169,3.612.293,7.792,3.579,11.078S18.991,391.237,22.6,390.068Z" transform="translate(-30.32 -355.246)" fill="#4677d4"/>
      <path id="Trazado_1210555" data-name="Trazado 1210555" d="M97.547,221.6a3.361,3.361,0,0,0,2.781-3.16,23.345,23.345,0,0,1,1.319-2.517c-1.213-1.1-3.923-2.162-7.452-1.78a19.022,19.022,0,0,0-.6,4.03A3.363,3.363,0,0,0,97.547,221.6Z" transform="translate(-106.329 -212.712)" fill="#fdd1a3"/>
      <path id="Trazado_1210556" data-name="Trazado 1210556" d="M254.143,249.033a18.885,18.885,0,0,0,5.535-12.619,3.371,3.371,0,0,0-6.737-.267,50.183,50.183,0,0,1-4.44,7.243c-2.143,2.143-6.972,3.215-9.781,3.215l2.02,2.26a4.862,4.862,0,0,0,6.538,4.562A18.885,18.885,0,0,0,254.143,249.033Z" transform="translate(-234.539 -229.381)" fill="#4677d4"/>
      <path id="Trazado_1210557" data-name="Trazado 1210557" d="M221.6,353.481a3.361,3.361,0,0,0-3.16-2.781,23.353,23.353,0,0,1-2.517-1.319c-1.1,1.213-2.162,3.923-1.78,7.452a19.022,19.022,0,0,0,4.03.6A3.363,3.363,0,0,0,221.6,353.481Z" transform="translate(-212.762 -332.25)" fill="#da9d81"/>
      <ellipse id="Elipse_12712" data-name="Elipse 12712" cx="11.278" cy="9.244" rx="11.278" ry="9.244" transform="translate(10.139 26.145) rotate(-45)" fill="#ffdcce"/>
      <path id="Trazado_1210558" data-name="Trazado 1210558" d="M353.482,232.987a3.361,3.361,0,0,0-2.781,3.16,23.33,23.33,0,0,1-1.319,2.517c1.213,1.1,3.923,2.162,7.452,1.78a19.02,19.02,0,0,0,.6-4.03A3.363,3.363,0,0,0,353.482,232.987Z" transform="translate(-332.299 -229.381)" fill="#ffdcce"/>
      <circle id="Elipse_12713" data-name="Elipse 12713" cx="12.213" cy="12.213" r="12.213" transform="translate(-6.012 -5.965)" fill="#59d5ff"/>
      <path id="Trazado_1210559" data-name="Trazado 1210559" d="M174.255,181.052c-12.713.712-18.992-11.088-16.7-16.471a12.214,12.214,0,1,0,16.7,16.471Z" transform="translate(-157.308 -168.997)" fill="#00c4fc"/>
      <path id="Trazado_1210560" data-name="Trazado 1210560" d="M277.6,261.482H270.87a4.235,4.235,0,0,0-4.235,4.235A2.282,2.282,0,0,0,268.917,268a.826.826,0,0,1,.826.826,4.463,4.463,0,0,0,1.111,2.951A12.215,12.215,0,0,0,277.6,261.482Z" transform="translate(-259.2 -254.6)" fill="#00cd8d"/>
      <path id="Trazado_1210561" data-name="Trazado 1210561" d="M270.855,295.365a12.267,12.267,0,0,0,5.29-5.121,16.947,16.947,0,0,1-9.358-2.06,4.233,4.233,0,0,0-.151,1.122,2.282,2.282,0,0,0,2.282,2.282.826.826,0,0,1,.826.826A4.464,4.464,0,0,0,270.855,295.365Z" transform="translate(-259.201 -278.188)" fill="#00b662"/>
      <path id="Trazado_1210562" data-name="Trazado 1210562" d="M388.4,7.61c1.115,3.935,2.844,6.453,5.674,6.952a1.045,1.045,0,0,1,.85.85c.5,2.83,3.017,4.559,6.952,5.675.4-3.227-1.078-6.729-3.913-9.564S391.625,7.211,388.4,7.61Z" transform="translate(-366.766 -30.271)" fill="#f5c956"/>
      <path id="Trazado_1210563" data-name="Trazado 1210563" d="M13.339,17.963a3.271,3.271,0,0,0,4.626-4.626c-1.277-1.278-4.711-2.245-5.791-1.165S12.061,16.685,13.339,17.963Z" transform="translate(-33.995 -33.946)" fill="#ff6e80"/>
      <path id="Trazado_1210564" data-name="Trazado 1210564" d="M158.466,195.712h-4.941a12.156,12.156,0,0,0-2.228,7.034c0,.159,0,.317.01.475H156.5a4.738,4.738,0,0,0,4.738-4.738A2.771,2.771,0,0,0,158.466,195.712Z" transform="translate(-157.308 -196.498)" fill="#00cd8d"/>
      <path id="Trazado_1210565" data-name="Trazado 1210565" d="M157.161,195.712h-3.637a12.156,12.156,0,0,0-2.228,7.034c0,.159,0,.317.01.475H156.5a4.72,4.72,0,0,0,3.256-1.3A13.716,13.716,0,0,1,157.161,195.712Z" transform="translate(-157.308 -196.498)" fill="#00b662"/>
      <path id="Trazado_1210566" data-name="Trazado 1210566" d="M48.418,14.947A.874.874,0,0,0,48.3,13.2a1.67,1.67,0,0,1-1.782-1.782.874.874,0,0,0-1.745-.12,3.419,3.419,0,0,0,3.647,3.647Zm-6.6-6.474a.871.871,0,0,0,.618-.256l.989-.989a.874.874,0,1,0-1.236-1.237L41.2,6.98a.874.874,0,0,0,.618,1.493Zm-24.167-1.1a.874.874,0,0,0,0-1.237l-.989-.989a.874.874,0,1,0-1.237,1.237l.989.989A.874.874,0,0,0,17.655,7.371Zm-7.094,4.986a.874.874,0,0,0-.12,1.745,3.419,3.419,0,0,0,3.647-3.647.874.874,0,0,0-1.745.12,1.67,1.67,0,0,1-1.783,1.782Zm42.9,29.584a.875.875,0,0,0-1.237,1.237l.989.989a.874.874,0,0,0,1.237-1.237Zm-.724-23.427.989-.989a.874.874,0,0,0-1.237-1.237l-.989.989a.874.874,0,0,0,1.237,1.237ZM11.18,44.891a.874.874,0,1,0,.12,1.745,1.67,1.67,0,0,1,1.782,1.782.875.875,0,0,0,.812.932l.061,0a.875.875,0,0,0,.872-.815,3.419,3.419,0,0,0-3.647-3.647ZM7.358,17.668a.874.874,0,0,0,0-1.237l-.989-.989a.874.874,0,0,0-1.237,1.237l.989.989a.875.875,0,0,0,1.237,0Zm9.8,33.953-.989.989A.874.874,0,0,0,17.4,53.848l.989-.989a.874.874,0,0,0-1.237-1.237Zm-10.3-10.3-.989.989A.874.874,0,0,0,7.107,43.55l.989-.989A.874.874,0,0,0,6.86,41.324ZM41.928,52.238a.874.874,0,0,0,0,1.237l.989.989a.874.874,0,0,0,1.237-1.237l-.989-.989A.874.874,0,0,0,41.928,52.238ZM48.3,37.133a19.984,19.984,0,0,0,1.363-6.447,4.181,4.181,0,0,0-1.375-3.277,5.678,5.678,0,0,0,.18-4.383c-.052-.142-.107-.285-.163-.427A9.223,9.223,0,0,0,56.9,20c4.557-4.557,3.173-11.138-1.438-15.748S44.273-1.741,39.718,2.813a9.788,9.788,0,0,0-1.85,2.538,5.133,5.133,0,0,0-6.98,4.713l-.215-.012A4.186,4.186,0,0,0,27.4,11.428a5.68,5.68,0,0,0-4.383-.18c-.143.052-.285.107-.427.164a9.223,9.223,0,0,0-2.6-8.6C16.672-.5,11.906-.886,7.435,1.755,5.778.69,2.6-.163,1.212,1.225S.677,5.79,1.743,7.448a13.218,13.218,0,0,0-1.19,2.608.874.874,0,0,0,1.663.543,11.234,11.234,0,0,1,.79-1.83,4.145,4.145,0,0,0,5.75-5.749c3.465-1.864,7.212-1.751,9.994,1.031,3.86,3.859,2.458,9.379-1.438,13.275S7.9,22.624,4.037,18.763A7.466,7.466,0,0,1,1.809,14.3a.874.874,0,0,0-1.736.209A9.3,9.3,0,0,0,2.8,20a9.223,9.223,0,0,0,8.6,2.6,19.983,19.983,0,0,0-1.363,6.447,4.181,4.181,0,0,0,1.374,3.277,5.68,5.68,0,0,0-.18,4.383q.078.214.163.427a9.223,9.223,0,0,0-8.6,2.6c-9.557,9.557,7.641,26.732,17.187,17.187a9.223,9.223,0,0,0,2.6-8.6,19.977,19.977,0,0,0,6.447,1.363,4.18,4.18,0,0,0,3.275-1.372,5.68,5.68,0,0,0,4.385.178q.214-.078.427-.163a9.223,9.223,0,0,0,2.6,8.6c3.722,3.722,8.973,3.56,13.418.508a.874.874,0,1,0-.99-1.442c-3.665,2.516-8.023,2.866-11.191-.3C37.1,51.821,38.5,46.3,42.393,42.406s9.417-5.3,13.275-1.438c3.563,3.563,2.647,8.582-.633,12.407a.874.874,0,1,0,1.327,1.139c4.232-4.934,4.45-10.875.543-14.782a9.223,9.223,0,0,0-8.6-2.6ZM7,7.016a2.4,2.4,0,0,1-3.389,0A5.775,5.775,0,0,1,2.381,4.468c-.267-1.155-.106-1.833.068-2.006s.851-.335,2.006-.068A5.777,5.777,0,0,1,7,3.627,2.4,2.4,0,0,1,7,7.016ZM54.23,5.488a11.681,11.681,0,0,1,3.721,7.778c-3.226-1.088-4.914-2.583-5.28-4.66a1.929,1.929,0,0,0-1.56-1.559c-2.076-.366-3.571-2.054-4.659-5.28a11.684,11.684,0,0,1,7.778,3.72ZM40.955,4.05a7.594,7.594,0,0,1,3.717-2.1c1.306,4.087,3.318,6.322,6.135,6.819a.17.17,0,0,1,.141.141c.5,2.817,2.731,4.829,6.819,6.136a7.6,7.6,0,0,1-2.1,3.716c-3.859,3.859-9.379,2.458-13.275-1.438S37.1,7.908,40.955,4.05ZM46.1,21.928a17.951,17.951,0,0,1,.729,1.7,3.95,3.95,0,0,1-.054,2.888,4.234,4.234,0,0,0-4.087.787,13.135,13.135,0,0,0-7.993-9.6,11.926,11.926,0,0,0,.922-4.978,17.945,17.945,0,0,1,2.173.888A16.017,16.017,0,0,0,46.1,21.928ZM37.242,6.981a9.66,9.66,0,0,0-.123,4.433,20.047,20.047,0,0,0-4.482-1.18,3.386,3.386,0,0,1,4.605-3.253ZM30.6,11.8a18.113,18.113,0,0,1,3.245.433,10.443,10.443,0,0,1-.827,4.933,13.075,13.075,0,0,0-2.613-.376A2.5,2.5,0,0,1,30.6,11.8Zm-17,10.128a16.016,16.016,0,0,0,8.311-8.31,17.97,17.97,0,0,1,1.7-.729,3.95,3.95,0,0,1,2.888.054,4.239,4.239,0,0,0,.785,4.087,13.135,13.135,0,0,0-9.595,7.992,11.929,11.929,0,0,0-4.978-.922A17.934,17.934,0,0,1,13.6,21.929ZM24.81,23.706a1.9,1.9,0,0,1,1.9,1.9,3.868,3.868,0,0,1-3.864,3.864H18.522a11.267,11.267,0,0,1,1.816-5.76ZM11.788,29.117a18.1,18.1,0,0,1,.433-3.246,10.444,10.444,0,0,1,4.933.827,13.072,13.072,0,0,0-.376,2.613,2.5,2.5,0,0,1-4.99-.194ZM1.833,45.254a9.458,9.458,0,0,1,2.5,3.112,2.626,2.626,0,0,0,1.277,1.247A9.5,9.5,0,0,1,10.1,54.1a2.626,2.626,0,0,0,1.247,1.277,9.455,9.455,0,0,1,3.112,2.5c-6.254.9-13.53-6.4-12.63-12.631ZM18.75,55.681a7.87,7.87,0,0,1-2.474,1.7,11.545,11.545,0,0,0-1.235-1.455,10.839,10.839,0,0,0-2.929-2.115.873.873,0,0,1-.416-.424,11.242,11.242,0,0,0-5.362-5.362.874.874,0,0,1-.424-.416A10.839,10.839,0,0,0,3.8,44.676a11.553,11.553,0,0,0-1.455-1.235,7.868,7.868,0,0,1,1.7-2.474c3.86-3.86,9.38-2.457,13.275,1.438S22.609,51.823,18.75,55.681ZM24.09,47a17.938,17.938,0,0,1-2.174-.888,16.016,16.016,0,0,0-8.31-8.311,17.982,17.982,0,0,1-.729-1.7,3.95,3.95,0,0,1,.054-2.888,4.233,4.233,0,0,0,4.087-.787,13.135,13.135,0,0,0,7.993,9.6A11.927,11.927,0,0,0,24.09,47Zm5.014.928a18.113,18.113,0,0,1-3.245-.433,10.443,10.443,0,0,1,.827-4.933,13.066,13.066,0,0,0,2.613.376,2.5,2.5,0,0,1-.194,4.99ZM18.595,31.215h4.248A5.619,5.619,0,0,0,28.455,25.6a3.65,3.65,0,0,0-3.646-3.646H21.736a11.332,11.332,0,0,1,19.452,7.668H35.323a5.115,5.115,0,0,0-5.109,5.109,3.161,3.161,0,0,0,3.109,3.157,5.345,5.345,0,0,0,.665,2.532,11.352,11.352,0,0,1-15.392-9.208Zm22.5.159a11.361,11.361,0,0,1-5.528,8.284,3.6,3.6,0,0,1-.491-1.814,1.7,1.7,0,0,0-1.7-1.7,1.41,1.41,0,0,1-1.408-1.408,3.364,3.364,0,0,1,3.36-3.361ZM46.1,37.8a16.015,16.015,0,0,0-8.311,8.31,17.938,17.938,0,0,1-1.7.729,3.95,3.95,0,0,1-2.888-.054,4.232,4.232,0,0,0-.787-4.087,13.135,13.135,0,0,0,9.6-7.993,11.935,11.935,0,0,0,4.978.922A17.971,17.971,0,0,1,46.1,37.8Zm1.816-7.188a18.114,18.114,0,0,1-.433,3.246,10.443,10.443,0,0,1-4.933-.827,13.071,13.071,0,0,0,.376-2.613,2.5,2.5,0,0,1,4.99.194Zm1.1,16.638a.874.874,0,1,0,.12-1.745,3.419,3.419,0,0,0-3.647,3.647.874.874,0,0,0,.872.815l.061,0a.875.875,0,0,0,.813-.932,1.67,1.67,0,0,1,1.782-1.782Z" transform="translate(-23.652 -23.618)"/>
    </g>
  </g>
</svg>
