<svg xmlns="http://www.w3.org/2000/svg" xmlns:xlink="http://www.w3.org/1999/xlink" width="113" height="113" viewBox="0 0 113 113">
  <defs>
    <filter id="Trazado_982547" x="0" y="0" width="113" height="113" filterUnits="userSpaceOnUse">
      <feOffset dy="3" input="SourceAlpha"/>
      <feGaussianBlur stdDeviation="3" result="blur"/>
      <feFlood flood-opacity="0.161"/>
      <feComposite operator="in" in2="blur"/>
      <feComposite in="SourceGraphic"/>
    </filter>
  </defs>
  <g id="Grupo_1223818" data-name="Grupo 1223818" transform="translate(-3740 -1847)">
    <g id="Grupo_1223347" data-name="Grupo 1223347" transform="translate(2946.51 -3780.425)">
      <g id="Grupo_1177675" data-name="Grupo 1177675" transform="translate(-4493 3707.152)">
        <g id="Grupo_1176928" data-name="Grupo 1176928" transform="translate(5295.49 1926.273)">
          <g id="Grupo_1172322" data-name="Grupo 1172322" transform="translate(0 0)">
            <g id="Grupo_1164700" data-name="Grupo 1164700">
              <g id="Grupo_1160931" data-name="Grupo 1160931">
                <g id="Grupo_1160749" data-name="Grupo 1160749">
                  <g id="Grupo_1158891" data-name="Grupo 1158891">
                    <g id="Grupo_1157406" data-name="Grupo 1157406">
                      <g id="Grupo_1155793" data-name="Grupo 1155793">
                        <g id="Grupo_1154704" data-name="Grupo 1154704">
                          <g id="Grupo_1150790" data-name="Grupo 1150790">
                            <g id="Grupo_1154214" data-name="Grupo 1154214">
                              <g id="Grupo_1152583" data-name="Grupo 1152583">
                                <g id="Grupo_1146973" data-name="Grupo 1146973">
                                  <g id="Grupo_1146954" data-name="Grupo 1146954">
                                    <g transform="matrix(1, 0, 0, 1, -9, -6)" filter="url(#Trazado_982547)">
                                      <g id="Trazado_982547-2" data-name="Trazado 982547" transform="translate(9 6)" fill="#d9d5e3">
                                        <path d="M 47.5000114440918 93.49987030029297 C 41.28938293457031 93.49987030029297 35.26534652709961 92.28384399414062 29.5951976776123 89.88558959960938 C 24.11773109436035 87.56881713867188 19.19814491271973 84.25183868408203 14.97310447692871 80.02680206298828 C 10.74805164337158 75.80176544189453 7.43107795715332 70.88218688964844 5.114304542541504 65.40472412109375 C 2.716038227081299 59.73458862304688 1.500011444091797 53.71054840087891 1.500011444091797 47.49993515014648 C 1.500011444091797 41.28932189941406 2.716038227081299 35.26528167724609 5.114304542541504 29.59514808654785 C 7.43107795715332 24.1176815032959 10.74805164337158 19.1981086730957 14.97310447692871 14.97306823730469 C 19.19814491271973 10.74802875518799 24.11773109436035 7.431055068969727 29.5951976776123 5.11428165435791 C 35.26534652709961 2.716028451919556 41.28938293457031 1.500001788139343 47.5000114440918 1.500001788139343 C 53.71063995361328 1.500001788139343 59.73467636108398 2.716028451919556 65.40482330322266 5.11428165435791 C 70.88229370117188 7.431055068969727 75.8018798828125 10.74802875518799 80.02691650390625 14.97306823730469 C 84.25196838378906 19.1981086730957 87.56894683837891 24.1176815032959 89.88571929931641 29.59514808654785 C 92.28398132324219 35.26528167724609 93.50001525878906 41.28932189941406 93.50001525878906 47.49993515014648 C 93.50001525878906 53.71054840087891 92.28398132324219 59.73458862304688 89.88571929931641 65.40472412109375 C 87.56894683837891 70.88218688964844 84.25196838378906 75.80176544189453 80.02691650390625 80.02680206298828 C 75.8018798828125 84.25183868408203 70.88229370117188 87.56881713867188 65.40482330322266 89.88558959960938 C 59.73467636108398 92.28384399414062 53.71063995361328 93.49987030029297 47.5000114440918 93.49987030029297 Z" stroke="none"/>
                                        <path d="M 47.5000114440918 3 C 41.49122619628906 3 35.66378021240234 4.1761474609375 30.17951965332031 6.495796203613281 C 24.880859375 8.7369384765625 20.12153625488281 11.94596862792969 16.03376770019531 16.03373718261719 C 11.94598388671875 20.12149047851562 8.736968994140625 24.88081359863281 6.495811462402344 30.17947387695312 C 4.176162719726562 35.66371917724609 3.000007629394531 41.49116516113281 3.000007629394531 47.49993515014648 C 3.000007629394531 53.50870513916016 4.176162719726562 59.33615112304688 6.495811462402344 64.82039642333984 C 8.736968994140625 70.11905670166016 11.94598388671875 74.87837982177734 16.03376770019531 78.96613311767578 C 20.12153625488281 83.05390167236328 24.880859375 86.26293182373047 30.17951965332031 88.50407409667969 C 35.66378021240234 90.82372283935547 41.49122619628906 91.99987030029297 47.5000114440918 91.99987030029297 C 53.50879669189453 91.99987030029297 59.33624267578125 90.82372283935547 64.82050323486328 88.50407409667969 C 70.11916351318359 86.26293182373047 74.87848663330078 83.05390167236328 78.96625518798828 78.96613311767578 C 83.05403900146484 74.87837982177734 86.2630615234375 70.11905670166016 88.50421142578125 64.82039642333984 C 90.82386016845703 59.33615112304688 92.00001525878906 53.50870513916016 92.00001525878906 47.49993515014648 C 92.00001525878906 41.49116516113281 90.82386016845703 35.66371917724609 88.50421142578125 30.17947387695312 C 86.2630615234375 24.88081359863281 83.05403900146484 20.12149047851562 78.96625518798828 16.03373718261719 C 74.87848663330078 11.94596862792969 70.11916351318359 8.7369384765625 64.82050323486328 6.495796203613281 C 59.33624267578125 4.1761474609375 53.50879669189453 3 47.5000114440918 3 M 47.5000114440918 0 C 73.73353576660156 0 95.00001525878906 21.26644134521484 95.00001525878906 47.49993515014648 C 95.00001525878906 73.73342895507812 73.73353576660156 94.99987030029297 47.5000114440918 94.99987030029297 C 21.26648712158203 94.99987030029297 7.62939453125e-06 73.73342895507812 7.62939453125e-06 47.49993515014648 C 7.62939453125e-06 21.26644134521484 21.26648712158203 0 47.5000114440918 0 Z" stroke="none" fill="#453179"/>
                                      </g>
                                    </g>
                                  </g>
                                </g>
                              </g>
                            </g>
                          </g>
                        </g>
                      </g>
                    </g>
                  </g>
                </g>
              </g>
            </g>
          </g>
        </g>
      </g>
    </g>
    <g id="profesor_3_" data-name="profesor (3)" transform="translate(3726.252 1867)">
      <g id="Grupo_1223816" data-name="Grupo 1223816" transform="translate(46.738 0.99)">
        <g id="Grupo_1223800" data-name="Grupo 1223800" transform="translate(48.213 9.937)">
          <path id="Trazado_1210608" data-name="Trazado 1210608" d="M420.611,114.044h-.191a1.844,1.844,0,0,1-1.844-1.844V84.643A1.844,1.844,0,0,1,420.42,82.8h.191a1.844,1.844,0,0,1,1.844,1.844V112.2A1.844,1.844,0,0,1,420.611,114.044Z" transform="translate(-418.576 -82.799)" fill="#fdcd08"/>
        </g>
        <g id="Grupo_1223801" data-name="Grupo 1223801" transform="translate(14.933 25.898)">
          <path id="Trazado_1210609" data-name="Trazado 1210609" d="M166.4,203.738h7.754v10.151H166.4Z" transform="translate(-166.399 -203.738)" fill="#faa68e"/>
        </g>
        <g id="Grupo_1223802" data-name="Grupo 1223802" transform="translate(14.933 25.898)">
          <path id="Trazado_1210610" data-name="Trazado 1210610" d="M166.4,203.738v10.151h2.024v-5h3.8a9.519,9.519,0,0,0,1.928-.2v-4.953H166.4Z" transform="translate(-166.399 -203.738)" fill="#e09380"/>
        </g>
        <g id="Grupo_1223803" data-name="Grupo 1223803" transform="translate(4.882 13.468)">
          <path id="Trazado_1210611" data-name="Trazado 1210611" d="M95.089,115.809H93.024a2.787,2.787,0,0,1-2.787-2.787v-.681a2.787,2.787,0,0,1,2.787-2.787h2.065Z" transform="translate(-90.237 -109.554)" fill="#faa68e"/>
        </g>
        <g id="Grupo_1223804" data-name="Grupo 1223804" transform="translate(27.885 13.468)">
          <path id="Trazado_1210612" data-name="Trazado 1210612" d="M264.548,109.555h2.065a2.787,2.787,0,0,1,2.787,2.787v.681a2.787,2.787,0,0,1-2.787,2.787h-2.065Z" transform="translate(-264.548 -109.555)" fill="#faa68e"/>
        </g>
        <g id="Grupo_1223805" data-name="Grupo 1223805" transform="translate(8.96 4.139)">
          <path id="Trazado_1210613" data-name="Trazado 1210613" d="M132.363,63.779H129.62a8.478,8.478,0,0,1-8.478-8.478V47.344a8.478,8.478,0,0,1,8.478-8.478h2.743a8.478,8.478,0,0,1,8.478,8.478V55.3A8.478,8.478,0,0,1,132.363,63.779Z" transform="translate(-121.142 -38.866)" fill="#ffcdbe"/>
        </g>
        <path id="Trazado_1210614" data-name="Trazado 1210614" d="M123.3,55.3V47.344a8.478,8.478,0,0,1,8.478-8.478H129.62a8.478,8.478,0,0,0-8.478,8.478V55.3a8.478,8.478,0,0,0,8.478,8.478h2.154A8.478,8.478,0,0,1,123.3,55.3Z" transform="translate(-112.182 -34.727)" fill="#ebae9d"/>
        <g id="Grupo_1223806" data-name="Grupo 1223806" transform="translate(5.948)">
          <path id="Trazado_1210615" data-name="Trazado 1210615" d="M109.161,8.75a4.268,4.268,0,0,1,3.018-1.25h4.28a6.512,6.512,0,0,1,5.669,3.307l2.082,3.681a3.75,3.75,0,0,1-1,4.838l-1.272.96a3.374,3.374,0,0,1-2.034.682h-3.167a6.489,6.489,0,0,1-4.921-2.259l-2.45-2.851a.467.467,0,0,0-.743.046l-2.242,3.367a3.8,3.8,0,0,1-3.167,1.7h-1.878l-2.054-2.926a5.275,5.275,0,0,1,1.255-7.326l2.357-1.681a4.407,4.407,0,0,1,4.521-.358l.542.27A1.048,1.048,0,0,0,109.161,8.75Z" transform="translate(-98.321 -7.5)" fill="#365f7e"/>
        </g>
        <g id="Grupo_1223807" data-name="Grupo 1223807" transform="translate(5.948 0.718)">
          <path id="Trazado_1210616" data-name="Trazado 1210616" d="M101.607,22.763a5.275,5.275,0,0,1,1.255-7.326l2.357-1.681a4.4,4.4,0,0,1,1.395-.661,4.406,4.406,0,0,0-3.723.661l-2.357,1.681a5.275,5.275,0,0,0-1.255,7.326l2.054,2.926h1.878a3.811,3.811,0,0,0,.432-.026Z" transform="translate(-98.321 -12.938)" fill="#2c4d66"/>
        </g>
        <g id="Grupo_1223808" data-name="Grupo 1223808" transform="translate(0 32.694)">
          <path id="Trazado_1210617" data-name="Trazado 1210617" d="M83.695,258.726l-7.762-3.487-3.877,3.354-3.877-3.354-11.741,5.274a5.407,5.407,0,0,0-3.192,4.933v21.47a1.218,1.218,0,0,0,1.218,1.218h29.23Z" transform="translate(-53.247 -255.239)" fill="#d3ced5"/>
        </g>
        <g id="Grupo_1223809" data-name="Grupo 1223809" transform="translate(6.466 33.488)">
          <path id="Trazado_1210618" data-name="Trazado 1210618" d="M108.942,261.258l-6.7,3.009v2.32l6.7-3.009Z" transform="translate(-102.243 -261.258)" fill="#c3bec6"/>
        </g>
        <g id="Grupo_1223810" data-name="Grupo 1223810" transform="translate(18.81 32.694)">
          <path id="Trazado_1210619" data-name="Trazado 1210619" d="M203.6,257.013l-3.315,3.1a2,2,0,0,1-2.672.057l-1.838-1.579,3.877-3.354Z" transform="translate(-195.776 -255.239)" fill="#f6f1f1"/>
        </g>
        <g id="Grupo_1223811" data-name="Grupo 1223811" transform="translate(10.985 32.694)">
          <path id="Trazado_1210620" data-name="Trazado 1210620" d="M136.482,257.013l3.315,3.1a2,2,0,0,0,2.672.057l1.838-1.579-3.877-3.354Z" transform="translate(-136.482 -255.239)" fill="#f6f1f1"/>
        </g>
        <g id="Grupo_1223812" data-name="Grupo 1223812" transform="translate(0 35.403)">
          <path id="Trazado_1210621" data-name="Trazado 1210621" d="M56.44,278.328a5.407,5.407,0,0,0-3.192,4.933v21.47a1.218,1.218,0,0,0,1.218,1.218h7.686V275.762Z" transform="translate(-53.248 -275.762)" fill="#e1761c"/>
        </g>
        <g id="Grupo_1223813" data-name="Grupo 1223813" transform="translate(0 35.403)">
          <path id="Trazado_1210622" data-name="Trazado 1210622" d="M55.623,304.731V284.514a5.407,5.407,0,0,1,3.192-4.933l3.337-1.5v-2.32l-5.712,2.566a5.408,5.408,0,0,0-3.192,4.933v21.47a1.218,1.218,0,0,0,1.218,1.218h2.375a1.218,1.218,0,0,1-1.218-1.218Z" transform="translate(-53.248 -275.762)" fill="#d76718"/>
        </g>
        <g id="Grupo_1223814" data-name="Grupo 1223814" transform="translate(28.715 35.403)">
          <path id="Trazado_1210623" data-name="Trazado 1210623" d="M293.461,284.91l-6.21-3.747-3.481,5.6-4.931-6.117a11.334,11.334,0,0,0-4.317-3.286l-3.685-1.6v30.187h5.031a1.218,1.218,0,0,0,1.218-1.218V294.216l4.47,3.262a3.166,3.166,0,0,0,4.547-.872Z" transform="translate(-270.837 -275.762)" fill="#e1761c"/>
        </g>
        <g id="Grupo_1223815" data-name="Grupo 1223815" transform="translate(45.129 36.55)">
          <path id="Trazado_1210624" data-name="Trazado 1210624" d="M396.967,285.891l-1.754,2.821,6.21,3.747,1.708-2.715a3.035,3.035,0,0,0-.964-4.192l-1.017-.634A3.035,3.035,0,0,0,396.967,285.891Z" transform="translate(-395.213 -284.458)" fill="#ffcdbe"/>
        </g>
      </g>
      <g id="Grupo_1223817" data-name="Grupo 1223817" transform="translate(45.748 0)">
        <path id="Trazado_1210625" data-name="Trazado 1210625" d="M155.972,129.125a.99.99,0,0,0-.99-.99h-.472a.99.99,0,0,0,0,1.98h.472A.99.99,0,0,0,155.972,129.125Z" transform="translate(-139.297 -111.225)"/>
        <path id="Trazado_1210626" data-name="Trazado 1210626" d="M220.444,130.115h.472a.99.99,0,0,0,0-1.98h-.472a.99.99,0,0,0,0,1.98Z" transform="translate(-196.53 -111.225)"/>
        <path id="Trazado_1210627" data-name="Trazado 1210627" d="M175.545,178.58a.99.99,0,1,0-1.035-1.687,3.492,3.492,0,0,1-3.47.1l-.233-.126a.99.99,0,0,0-.939,1.743l.234.126a5.477,5.477,0,0,0,5.443-.153Z" transform="translate(-153.036 -153.421)"/>
        <path id="Trazado_1210628" data-name="Trazado 1210628" d="M101.138,40.308a3.994,3.994,0,0,0-1.32-2.169V12.771a2.837,2.837,0,0,0-2.833-2.833h-.191a2.837,2.837,0,0,0-2.833,2.833V34.476a.99.99,0,1,0,1.98,0V12.771a.855.855,0,0,1,.854-.854h.191a.855.855,0,0,1,.854.854V36.9a4.025,4.025,0,0,0-5.059,1.55l-4.5,7.236-4.056-5.031a12.371,12.371,0,0,0-4.694-3.573l-3.685-1.6h0l-2.067-.929-.008,0-3.357-1.508V30.36A9.48,9.48,0,0,0,76.383,21.7h.305a3.781,3.781,0,0,0,3.777-3.777v-.681a3.783,3.783,0,0,0-2.44-3.532l.143-.108a4.754,4.754,0,0,0,1.269-6.115L77.355,3.809A7.515,7.515,0,0,0,70.824,0h-4.28a5.224,5.224,0,0,0-3.718,1.54.057.057,0,0,1-.067.011l-.542-.27a5.387,5.387,0,0,0-5.536.438L54.324,3.4a6.265,6.265,0,0,0-1.49,8.7l.991,1.412a3.783,3.783,0,0,0-3.2,3.732v.681A3.781,3.781,0,0,0,54.407,21.7h.305a9.481,9.481,0,0,0,5.969,8.657v2.683l-3.359,1.509,0,0-2.061.926h0l-5.732,2.575a6.407,6.407,0,0,0-3.776,5.836V56.5a.99.99,0,0,0,1.98,0V43.891a4.424,4.424,0,0,1,2.607-4.03l4.317-1.939V65.589h-6.7a.228.228,0,0,1-.228-.228V60.9a.99.99,0,1,0-1.98,0v4.458a2.21,2.21,0,0,0,2.208,2.208H80.484a2.21,2.21,0,0,0,2.208-2.208V56.794l2.9,2.114a4.156,4.156,0,0,0,5.968-1.144l9.066-14.411a4,4,0,0,0,.516-3.045ZM64.031,37.035l-.967.831a1.01,1.01,0,0,1-1.35-.029l-2.229-2.087,2.016-.906Zm5.563-2.19,2.016.906-2.229,2.087a1.01,1.01,0,0,1-1.35.029l-.967-.831Zm8.891-16.92a1.8,1.8,0,0,1-1.8,1.8h-.3V15.448h.3a1.8,1.8,0,0,1,1.8,1.8ZM55.473,5.012,57.83,3.331a3.411,3.411,0,0,1,3.505-.277l.542.27a2.036,2.036,0,0,0,2.348-.384,3.256,3.256,0,0,1,2.318-.96h4.28a5.532,5.532,0,0,1,4.808,2.8l2.082,3.681a2.769,2.769,0,0,1-.739,3.561l-1.272.96a2.4,2.4,0,0,1-1.437.482H71.1a5.493,5.493,0,0,1-4.17-1.914L64.477,8.7a1.444,1.444,0,0,0-1.1-.507l-.092,0a1.445,1.445,0,0,0-1.123.647l-2.242,3.367a2.809,2.809,0,0,1-2.343,1.255H56.212l-1.758-2.5a4.285,4.285,0,0,1,1.02-5.952ZM52.609,17.926v-.681a1.8,1.8,0,0,1,1.8-1.8h.3v4.276h-.3A1.8,1.8,0,0,1,52.609,17.926Zm4.079,3.638V15.448h.889a4.784,4.784,0,0,0,3.991-2.137l1.86-2.794,2,2.327a7.471,7.471,0,0,0,5.671,2.6s3.262,0,3.309-.006v6.122a7.5,7.5,0,0,1-7.488,7.488H64.176a7.5,7.5,0,0,1-7.488-7.488Zm7.488,9.468h2.743a9.487,9.487,0,0,0,1.516-.123v2.323l-2.887,2.5-2.887-2.5V30.909A9.5,9.5,0,0,0,64.176,31.032Zm25.7,25.678a2.176,2.176,0,0,1-3.126.6l-4.47-3.262a.99.99,0,0,0-1.573.8V65.361a.228.228,0,0,1-.228.228H76.443V48.021a.99.99,0,1,0-1.98,0V65.589H66.537v-6.16a.99.99,0,1,0-1.98,0v6.16H56.631V37.033l.9-.4,2.834,2.653a2.987,2.987,0,0,0,3.993.085l.2-.175v15.77a.99.99,0,1,0,1.98,0V39.193l.2.175a2.987,2.987,0,0,0,3.993-.085l2.834-2.653.9.4v6.85a.99.99,0,1,0,1.98,0V37.9l2.3,1a10.382,10.382,0,0,1,3.94,3l4.931,6.117a.99.99,0,0,0,1.611-.1l2.966-4.77,4.51,2.721ZM98.947,42.3l-1.191,1.893-4.519-2.727L94.461,39.5a2.046,2.046,0,0,1,2.819-.656l1.017.634a2.046,2.046,0,0,1,.649,2.825Z" transform="translate(-45.748 0)"/>
      </g>
    </g>
  </g>
</svg>
