<svg xmlns="http://www.w3.org/2000/svg" xmlns:xlink="http://www.w3.org/1999/xlink" width="113" height="113" viewBox="0 0 113 113">
  <defs>
    <filter id="Trazado_982547" x="0" y="0" width="113" height="113" filterUnits="userSpaceOnUse">
      <feOffset dy="3" input="SourceAlpha"/>
      <feGaussianBlur stdDeviation="3" result="blur"/>
      <feFlood flood-opacity="0.161"/>
      <feComposite operator="in" in2="blur"/>
      <feComposite in="SourceGraphic"/>
    </filter>
  </defs>
  <g id="Grupo_1223825" data-name="Grupo 1223825" transform="translate(-4058 -1847.428)">
    <g id="Grupo_1223348" data-name="Grupo 1223348" transform="translate(2946 -3779.997)">
      <g id="Grupo_1202104" data-name="Grupo 1202104" transform="translate(0 -1149.226)">
        <g id="Grupo_1201923" data-name="Grupo 1201923" transform="translate(-4174.49 4856.378)">
          <g id="Grupo_1176928" data-name="Grupo 1176928" transform="translate(5295.49 1926.273)">
            <g id="Grupo_1172322" data-name="Grupo 1172322" transform="translate(0 0)">
              <g id="Grupo_1164700" data-name="Grupo 1164700">
                <g id="Grupo_1160931" data-name="Grupo 1160931">
                  <g id="Grupo_1160749" data-name="Grupo 1160749">
                    <g id="Grupo_1158891" data-name="Grupo 1158891">
                      <g id="Grupo_1157406" data-name="Grupo 1157406">
                        <g id="Grupo_1155793" data-name="Grupo 1155793">
                          <g id="Grupo_1154704" data-name="Grupo 1154704">
                            <g id="Grupo_1150790" data-name="Grupo 1150790">
                              <g id="Grupo_1154214" data-name="Grupo 1154214">
                                <g id="Grupo_1152583" data-name="Grupo 1152583">
                                  <g id="Grupo_1146973" data-name="Grupo 1146973">
                                    <g id="Grupo_1146954" data-name="Grupo 1146954">
                                      <g transform="matrix(1, 0, 0, 1, -9, -6)" filter="url(#Trazado_982547)">
                                        <g id="Trazado_982547-2" data-name="Trazado 982547" transform="translate(9 6)" fill="#d9d5e3">
                                          <path d="M 47.5000114440918 93.49987030029297 C 41.28938293457031 93.49987030029297 35.26534652709961 92.28384399414062 29.5951976776123 89.88558959960938 C 24.11773109436035 87.56881713867188 19.19814491271973 84.25183868408203 14.97310447692871 80.02680206298828 C 10.74805164337158 75.80176544189453 7.43107795715332 70.88218688964844 5.114304542541504 65.40472412109375 C 2.716038227081299 59.73458862304688 1.500011444091797 53.71054840087891 1.500011444091797 47.49993515014648 C 1.500011444091797 41.28932189941406 2.716038227081299 35.26528167724609 5.114304542541504 29.59514808654785 C 7.43107795715332 24.1176815032959 10.74805164337158 19.1981086730957 14.97310447692871 14.97306823730469 C 19.19814491271973 10.74802875518799 24.11773109436035 7.431055068969727 29.5951976776123 5.11428165435791 C 35.26534652709961 2.716028451919556 41.28938293457031 1.500001788139343 47.5000114440918 1.500001788139343 C 53.71063995361328 1.500001788139343 59.73467636108398 2.716028451919556 65.40482330322266 5.11428165435791 C 70.88229370117188 7.431055068969727 75.8018798828125 10.74802875518799 80.02691650390625 14.97306823730469 C 84.25196838378906 19.1981086730957 87.56894683837891 24.1176815032959 89.88571929931641 29.59514808654785 C 92.28398132324219 35.26528167724609 93.50001525878906 41.28932189941406 93.50001525878906 47.49993515014648 C 93.50001525878906 53.71054840087891 92.28398132324219 59.73458862304688 89.88571929931641 65.40472412109375 C 87.56894683837891 70.88218688964844 84.25196838378906 75.80176544189453 80.02691650390625 80.02680206298828 C 75.8018798828125 84.25183868408203 70.88229370117188 87.56881713867188 65.40482330322266 89.88558959960938 C 59.73467636108398 92.28384399414062 53.71063995361328 93.49987030029297 47.5000114440918 93.49987030029297 Z" stroke="none"/>
                                          <path d="M 47.5000114440918 3 C 41.49122619628906 3 35.66378021240234 4.1761474609375 30.17951965332031 6.495796203613281 C 24.880859375 8.7369384765625 20.12153625488281 11.94596862792969 16.03376770019531 16.03373718261719 C 11.94598388671875 20.12149047851562 8.736968994140625 24.88081359863281 6.495811462402344 30.17947387695312 C 4.176162719726562 35.66371917724609 3.000007629394531 41.49116516113281 3.000007629394531 47.49993515014648 C 3.000007629394531 53.50870513916016 4.176162719726562 59.33615112304688 6.495811462402344 64.82039642333984 C 8.736968994140625 70.11905670166016 11.94598388671875 74.87837982177734 16.03376770019531 78.96613311767578 C 20.12153625488281 83.05390167236328 24.880859375 86.26293182373047 30.17951965332031 88.50407409667969 C 35.66378021240234 90.82372283935547 41.49122619628906 91.99987030029297 47.5000114440918 91.99987030029297 C 53.50879669189453 91.99987030029297 59.33624267578125 90.82372283935547 64.82050323486328 88.50407409667969 C 70.11916351318359 86.26293182373047 74.87848663330078 83.05390167236328 78.96625518798828 78.96613311767578 C 83.05403900146484 74.87837982177734 86.2630615234375 70.11905670166016 88.50421142578125 64.82039642333984 C 90.82386016845703 59.33615112304688 92.00001525878906 53.50870513916016 92.00001525878906 47.49993515014648 C 92.00001525878906 41.49116516113281 90.82386016845703 35.66371917724609 88.50421142578125 30.17947387695312 C 86.2630615234375 24.88081359863281 83.05403900146484 20.12149047851562 78.96625518798828 16.03373718261719 C 74.87848663330078 11.94596862792969 70.11916351318359 8.7369384765625 64.82050323486328 6.495796203613281 C 59.33624267578125 4.1761474609375 53.50879669189453 3 47.5000114440918 3 M 47.5000114440918 0 C 73.73353576660156 0 95.00001525878906 21.26644134521484 95.00001525878906 47.49993515014648 C 95.00001525878906 73.73342895507812 73.73353576660156 94.99987030029297 47.5000114440918 94.99987030029297 C 21.26648712158203 94.99987030029297 7.62939453125e-06 73.73342895507812 7.62939453125e-06 47.49993515014648 C 7.62939453125e-06 21.26644134521484 21.26648712158203 0 47.5000114440918 0 Z" stroke="none" fill="#453179"/>
                                        </g>
                                      </g>
                                    </g>
                                  </g>
                                </g>
                              </g>
                            </g>
                          </g>
                        </g>
                      </g>
                    </g>
                  </g>
                </g>
              </g>
            </g>
          </g>
        </g>
      </g>
    </g>
    <g id="migracion" transform="translate(4081.765 1857.749)">
      <g id="Grupo_1223823" data-name="Grupo 1223823" transform="translate(0.973 12.402)">
        <g id="Grupo_1223819" data-name="Grupo 1223819" transform="translate(10.969 9.585)">
          <path id="Trazado_1210629" data-name="Trazado 1210629" d="M157.578,114.046c0,5.545-3.049,10.593-2.547,14.382a21.293,21.293,0,0,1-31.4,0c-3.473-3.789-.566-8.837-.566-14.382s-2.907-10.593.566-14.382a21.293,21.293,0,0,1,31.4,0C155.031,106.051,157.578,108.5,157.578,114.046Z" transform="translate(-118.038 -92.754)" fill="#c8effe"/>
          <path id="Trazado_1210630" data-name="Trazado 1210630" d="M143.96,134.832a21.326,21.326,0,0,1-20.335-6.4c-3.472-3.789-.564-8.837-.564-14.382s-2.908-10.593.564-14.382a21.326,21.326,0,0,1,20.335-6.4,21.3,21.3,0,0,0,0,41.571Z" transform="translate(-118.035 -92.754)" fill="#99e6fc"/>
          <path id="Trazado_1210631" data-name="Trazado 1210631" d="M112.9,163.936v.041a3.575,3.575,0,0,1-3.575,3.575h-2.241a3.579,3.579,0,0,0-3.444,2.607,3.615,3.615,0,0,0-.132.968v.041a3.575,3.575,0,0,1-3.574,3.575H97.581a21.293,21.293,0,0,1,0-28.765h4.549a3.575,3.575,0,0,1,3.574,3.575v.041a3.574,3.574,0,0,1-3.194,3.554,3.4,3.4,0,0,1-.38.021,3.575,3.575,0,0,0-3.575,3.575v.041a3.57,3.57,0,0,0,3.575,3.575h7.195a3.575,3.575,0,0,1,3.575,3.575Z" transform="translate(-91.99 -139.068)" fill="#9be69d"/>
          <path id="Trazado_1210632" data-name="Trazado 1210632" d="M101.258,160.36a21.2,21.2,0,0,0,2.383,9.8,3.615,3.615,0,0,0-.132.968v.041a3.575,3.575,0,0,1-3.574,3.575H97.581a21.293,21.293,0,0,1,0-28.765h4.549a3.572,3.572,0,0,1,3.162,1.908,21.238,21.238,0,0,0-2.782,5.262,3.4,3.4,0,0,1-.38.021,3.575,3.575,0,0,0-3.575,3.575v.041a3.577,3.577,0,0,0,2.7,3.468Z" transform="translate(-91.99 -139.068)" fill="#6fd7a3"/>
          <path id="Trazado_1210633" data-name="Trazado 1210633" d="M289.752,160.36a21.213,21.213,0,0,1-5.591,14.382h-5a3.567,3.567,0,0,1-3.567-3.567v-.057a3.567,3.567,0,0,1,3.567-3.567h2.345a3.567,3.567,0,0,0,3.568-3.568v-.057a3.567,3.567,0,0,0-3.568-3.567h-.488a3.567,3.567,0,0,1-3.567-3.567v-.057a3.567,3.567,0,0,0-3.567-3.568,3.569,3.569,0,0,1-3.568-3.567v-.057a3.567,3.567,0,0,1,3.568-3.567H284.16a21.213,21.213,0,0,1,5.592,14.382Z" transform="translate(-247.168 -139.068)" fill="#9be69d"/>
        </g>
        <g id="Grupo_1223820" data-name="Grupo 1223820" transform="translate(5.221 40.185)">
          <circle id="Elipse_12714" data-name="Elipse 12714" cx="4.675" cy="4.675" r="4.675" transform="translate(3.588 0)" fill="#ffcebf"/>
          <path id="Trazado_1210634" data-name="Trazado 1210634" d="M81.784,337.466a4.675,4.675,0,1,1,0-8.664,4.676,4.676,0,0,0,0,8.664Z" transform="translate(-71.762 -328.459)" fill="#ffb09e"/>
          <path id="Trazado_1210635" data-name="Trazado 1210635" d="M49.706,409.036A1.979,1.979,0,0,1,47.8,406.49a8.563,8.563,0,0,1,16.329-.063,1.991,1.991,0,0,1-1.888,2.608Z" transform="translate(-47.711 -391.126)" fill="#fe646f"/>
          <path id="Trazado_1210636" data-name="Trazado 1210636" d="M52.486,406.49a1.979,1.979,0,0,0,1.906,2.546h-4.68a1.98,1.98,0,0,1-1.906-2.546A8.568,8.568,0,0,1,58.32,400.8,8.576,8.576,0,0,0,52.486,406.49Z" transform="translate(-47.717 -391.127)" fill="#fd4755"/>
        </g>
        <g id="Grupo_1223821" data-name="Grupo 1223821" transform="translate(45.295 1.229)">
          <circle id="Elipse_12715" data-name="Elipse 12715" cx="4.675" cy="4.675" r="4.675" transform="translate(3.588 0)" fill="#e49280"/>
          <path id="Trazado_1210637" data-name="Trazado 1210637" d="M390.468,37.4a4.675,4.675,0,1,1,0-8.664,4.676,4.676,0,0,0,0,8.664Z" transform="translate(-380.446 -28.389)" fill="#dd7f66"/>
          <path id="Trazado_1210638" data-name="Trazado 1210638" d="M358.39,108.966a1.979,1.979,0,0,1-1.907-2.545,8.563,8.563,0,0,1,16.329-.063,1.991,1.991,0,0,1-1.888,2.608H358.39Z" transform="translate(-356.395 -91.057)" fill="#7bacdf"/>
          <path id="Trazado_1210639" data-name="Trazado 1210639" d="M361.169,106.421a1.979,1.979,0,0,0,1.906,2.546h-4.68a1.98,1.98,0,0,1-1.906-2.546A8.568,8.568,0,0,1,367,100.733,8.576,8.576,0,0,0,361.169,106.421Z" transform="translate(-356.4 -91.058)" fill="#5f99d7"/>
        </g>
        <g id="Grupo_1223822" data-name="Grupo 1223822" transform="translate(0 0)">
          <path id="Trazado_1210640" data-name="Trazado 1210640" d="M275.733,271.874l-2.577-6.766a1.118,1.118,0,0,0-1.912-.308l-4.572,5.613a1.118,1.118,0,0,0,.689,1.81l1.645.265a27.306,27.306,0,0,1-9.012,12.3,26.811,26.811,0,0,1-16.449,5.571,1.857,1.857,0,1,0,0,3.715,30.5,30.5,0,0,0,18.709-6.337,31.035,31.035,0,0,0,10.477-14.651l1.778.287A1.118,1.118,0,0,0,275.733,271.874Z" transform="translate(-211.285 -232.521)" fill="#fe646f"/>
          <path id="Trazado_1210641" data-name="Trazado 1210641" d="M41.616,20.781a1.857,1.857,0,0,0-1.857-1.857A30.5,30.5,0,0,0,21.05,25.261,31.034,31.034,0,0,0,10.573,39.912L8.8,39.626a1.118,1.118,0,0,0-1.223,1.5l2.577,6.766a1.118,1.118,0,0,0,1.912.308l4.572-5.613a1.118,1.118,0,0,0-.689-1.81L14.3,40.513a27.306,27.306,0,0,1,9.012-12.3,26.811,26.811,0,0,1,16.449-5.571A1.858,1.858,0,0,0,41.616,20.781Z" transform="translate(-7.498 -18.924)" fill="#7bacdf"/>
        </g>
      </g>
      <g id="Grupo_1223824" data-name="Grupo 1223824" transform="translate(0 11.429)">
        <path id="Trazado_1210642" data-name="Trazado 1210642" d="M53,69.888a5.7,5.7,0,0,0,1.083-1.168,22.265,22.265,0,0,0,36.4-17.089.974.974,0,0,0-.969-.978h0a.974.974,0,0,0-.974.969,20.171,20.171,0,0,1-5.052,13.307H78.924a2.6,2.6,0,0,1-2.593-2.593V62.28a2.6,2.6,0,0,1,2.593-2.592H81.27a4.547,4.547,0,0,0,4.541-4.542v-.057a4.546,4.546,0,0,0-4.541-4.54h-.488a2.6,2.6,0,0,1-2.592-2.592V47.9a4.546,4.546,0,0,0-4.541-4.541,2.6,2.6,0,0,1-2.594-2.594v-.057a2.6,2.6,0,0,1,2.594-2.593H80.3a2.919,2.919,0,0,0,.558,1.431,2.986,2.986,0,0,0,2.4,1.212h2.206a20.12,20.12,0,0,1,2.65,6.572.974.974,0,0,0,1.906-.4,22.041,22.041,0,0,0-2.3-6.172h8.07A2.965,2.965,0,0,0,98.6,36.878a9.5,9.5,0,0,0-5.526-5.945,5.648,5.648,0,1,0-7.114,0,9.457,9.457,0,0,0-4.02,3.054,22.26,22.26,0,0,0-30.105,2.463l-.031.033a22.29,22.29,0,0,0-4.118,23.656,5.644,5.644,0,0,0-1.8,9.749A9.483,9.483,0,0,0,40.34,75.9a2.891,2.891,0,0,0,.442,2.6,2.986,2.986,0,0,0,2.4,1.212h8.671a.974.974,0,0,0,0-1.947H43.177a1.018,1.018,0,0,1-.827-.419.963.963,0,0,1-.15-.863,7.59,7.59,0,0,1,14.473-.055,1.017,1.017,0,0,1-.614,1.277.974.974,0,0,0-.644.916h0a.974.974,0,0,0,1.347.9,2.957,2.957,0,0,0,1.765-3.686A9.5,9.5,0,0,0,53,69.888ZM85.818,26.549a3.7,3.7,0,1,1,3.7,3.7A3.705,3.705,0,0,1,85.818,26.549Zm3.7,5.648a7.561,7.561,0,0,1,7.227,5.274,1.025,1.025,0,0,1-.148.926,1,1,0,0,1-.813.412H83.25a1.018,1.018,0,0,1-.827-.419.962.962,0,0,1-.15-.863A7.55,7.55,0,0,1,89.518,32.2Zm-8.6,3.464c-.079.166-.154.333-.224.5H73.649a4.546,4.546,0,0,0-4.541,4.54v.057A4.544,4.544,0,0,0,73.649,45.3,2.6,2.6,0,0,1,76.243,47.9v.057a4.545,4.545,0,0,0,4.54,4.54h.488a2.6,2.6,0,0,1,2.594,2.593v.057a2.6,2.6,0,0,1-2.594,2.6H78.925a4.545,4.545,0,0,0-4.54,4.54v.057a4.545,4.545,0,0,0,4.54,4.54h2.6a20.316,20.316,0,0,1-26.605,0v-.005a4.553,4.553,0,0,0,4.5-4.548v-.04a2.6,2.6,0,0,1,2.6-2.6h2.239a4.554,4.554,0,0,0,4.549-4.549V55.1a4.554,4.554,0,0,0-4.549-4.549H57.07a2.6,2.6,0,0,1-2.6-2.6V47.9a2.6,2.6,0,0,1,2.6-2.6,4.548,4.548,0,0,0,4.549-4.549v-.04a4.554,4.554,0,0,0-4.549-4.549H54.922a20.307,20.307,0,0,1,26-.5ZM52.957,38.113H57.07a2.6,2.6,0,0,1,2.6,2.6v.04a2.6,2.6,0,0,1-2.6,2.6A4.553,4.553,0,0,0,52.522,47.9v.042a4.554,4.554,0,0,0,4.549,4.549h7.195a2.6,2.6,0,0,1,2.6,2.6v.042a2.6,2.6,0,0,1-2.6,2.6H62.026a4.553,4.553,0,0,0-4.549,4.548v.04a2.6,2.6,0,0,1-2.414,2.592,5.657,5.657,0,0,0-5.373-5.058,20.335,20.335,0,0,1,3.267-21.748ZM49.445,61.8a3.7,3.7,0,1,1-3.7,3.7A3.705,3.705,0,0,1,49.445,61.8Z" transform="translate(-34.987 -19.671)"/>
        <path id="Trazado_1210643" data-name="Trazado 1210643" d="M270.116,265l-2.577-6.765a2.092,2.092,0,0,0-3.577-.576l-4.571,5.613a2.092,2.092,0,0,0,1.289,3.386l.456.073a26.542,26.542,0,0,1-8.26,10.76,25.844,25.844,0,0,1-15.856,5.369,2.831,2.831,0,1,0,0,5.662,31.459,31.459,0,0,0,19.3-6.538,32.187,32.187,0,0,0,10.533-14.333l.974.157A2.091,2.091,0,0,0,270.116,265Zm-1.843.835a.135.135,0,0,1-.135.051l-1.778-.286a.973.973,0,0,0-1.078.651,30.193,30.193,0,0,1-10.146,14.188,29.528,29.528,0,0,1-18.116,6.136.884.884,0,0,1,0-1.767,27.775,27.775,0,0,0,17.041-5.771,28.475,28.475,0,0,0,9.335-12.744.974.974,0,0,0-.76-1.293l-1.645-.265a.144.144,0,0,1-.089-.234l4.571-5.613a.133.133,0,0,1,.108-.054l.027,0a.134.134,0,0,1,.112.091l2.577,6.765A.134.134,0,0,1,268.274,265.833Z" transform="translate(-203.786 -225.019)"/>
        <path id="Trazado_1210644" data-name="Trazado 1210644" d="M6.292,42.294l4.571-5.613A2.092,2.092,0,0,0,9.574,33.3l-.455-.073a26.545,26.545,0,0,1,8.26-10.76,25.845,25.845,0,0,1,15.856-5.37,2.831,2.831,0,1,0,0-5.663,31.456,31.456,0,0,0-19.3,6.539,31.8,31.8,0,0,0-6.5,6.714A.974.974,0,1,0,9.02,25.817a29.859,29.859,0,0,1,6.1-6.3,29.525,29.525,0,0,1,18.116-6.137.884.884,0,0,1,0,1.768,27.776,27.776,0,0,0-17.04,5.771A28.09,28.09,0,0,0,6.859,33.66a.974.974,0,0,0,.761,1.293l1.645.265a.144.144,0,0,1,.089.234L4.783,41.065a.138.138,0,0,1-.135.052.135.135,0,0,1-.112-.092L1.959,34.26a.135.135,0,0,1,.023-.143.133.133,0,0,1,.134-.051l1.779.287A.973.973,0,0,0,4.972,33.7a29.515,29.515,0,0,1,1.763-4.154.974.974,0,1,0-1.729-.9A31.547,31.547,0,0,0,3.4,32.3l-.976-.157A2.092,2.092,0,0,0,.14,34.952l2.576,6.765a2.071,2.071,0,0,0,1.622,1.321,2.149,2.149,0,0,0,.343.028,2.069,2.069,0,0,0,1.613-.772Z" transform="translate(0 -11.429)"/>
      </g>
    </g>
  </g>
</svg>
