<svg xmlns="http://www.w3.org/2000/svg" xmlns:xlink="http://www.w3.org/1999/xlink" width="113" height="113" viewBox="0 0 113 113">
  <defs>
    <filter id="Trazado_982547" x="0" y="0" width="113" height="113" filterUnits="userSpaceOnUse">
      <feOffset dy="3" input="SourceAlpha"/>
      <feGaussianBlur stdDeviation="3" result="blur"/>
      <feFlood flood-opacity="0.161"/>
      <feComposite operator="in" in2="blur"/>
      <feComposite in="SourceGraphic"/>
    </filter>
  </defs>
  <g id="Grupo_1223829" data-name="Grupo 1223829" transform="translate(-3739 -2210.301)">
    <g id="Grupo_1223349" data-name="Grupo 1223349" transform="translate(2945.51 -3417.125)">
      <g id="Grupo_1177675" data-name="Grupo 1177675" transform="translate(-4493 3707.152)">
        <g id="Grupo_1176928" data-name="Grupo 1176928" transform="translate(5295.49 1926.273)">
          <g id="Grupo_1172322" data-name="Grupo 1172322" transform="translate(0 0)">
            <g id="Grupo_1164700" data-name="Grupo 1164700">
              <g id="Grupo_1160931" data-name="Grupo 1160931">
                <g id="Grupo_1160749" data-name="Grupo 1160749">
                  <g id="Grupo_1158891" data-name="Grupo 1158891">
                    <g id="Grupo_1157406" data-name="Grupo 1157406">
                      <g id="Grupo_1155793" data-name="Grupo 1155793">
                        <g id="Grupo_1154704" data-name="Grupo 1154704">
                          <g id="Grupo_1150790" data-name="Grupo 1150790">
                            <g id="Grupo_1154214" data-name="Grupo 1154214">
                              <g id="Grupo_1152583" data-name="Grupo 1152583">
                                <g id="Grupo_1146973" data-name="Grupo 1146973">
                                  <g id="Grupo_1146954" data-name="Grupo 1146954">
                                    <g transform="matrix(1, 0, 0, 1, -9, -6)" filter="url(#Trazado_982547)">
                                      <g id="Trazado_982547-2" data-name="Trazado 982547" transform="translate(9 6)" fill="#d9d5e3">
                                        <path d="M 47.5000114440918 93.49987030029297 C 41.28938293457031 93.49987030029297 35.26534652709961 92.28384399414062 29.5951976776123 89.88558959960938 C 24.11773109436035 87.56881713867188 19.19814491271973 84.25183868408203 14.97310447692871 80.02680206298828 C 10.74805164337158 75.80176544189453 7.43107795715332 70.88218688964844 5.114304542541504 65.40472412109375 C 2.716038227081299 59.73458862304688 1.500011444091797 53.71054840087891 1.500011444091797 47.49993515014648 C 1.500011444091797 41.28932189941406 2.716038227081299 35.26528167724609 5.114304542541504 29.59514808654785 C 7.43107795715332 24.1176815032959 10.74805164337158 19.1981086730957 14.97310447692871 14.97306823730469 C 19.19814491271973 10.74802875518799 24.11773109436035 7.431055068969727 29.5951976776123 5.11428165435791 C 35.26534652709961 2.716028451919556 41.28938293457031 1.500001788139343 47.5000114440918 1.500001788139343 C 53.71063995361328 1.500001788139343 59.73467636108398 2.716028451919556 65.40482330322266 5.11428165435791 C 70.88229370117188 7.431055068969727 75.8018798828125 10.74802875518799 80.02691650390625 14.97306823730469 C 84.25196838378906 19.1981086730957 87.56894683837891 24.1176815032959 89.88571929931641 29.59514808654785 C 92.28398132324219 35.26528167724609 93.50001525878906 41.28932189941406 93.50001525878906 47.49993515014648 C 93.50001525878906 53.71054840087891 92.28398132324219 59.73458862304688 89.88571929931641 65.40472412109375 C 87.56894683837891 70.88218688964844 84.25196838378906 75.80176544189453 80.02691650390625 80.02680206298828 C 75.8018798828125 84.25183868408203 70.88229370117188 87.56881713867188 65.40482330322266 89.88558959960938 C 59.73467636108398 92.28384399414062 53.71063995361328 93.49987030029297 47.5000114440918 93.49987030029297 Z" stroke="none"/>
                                        <path d="M 47.5000114440918 3 C 41.49122619628906 3 35.66378021240234 4.1761474609375 30.17951965332031 6.495796203613281 C 24.880859375 8.7369384765625 20.12153625488281 11.94596862792969 16.03376770019531 16.03373718261719 C 11.94598388671875 20.12149047851562 8.736968994140625 24.88081359863281 6.495811462402344 30.17947387695312 C 4.176162719726562 35.66371917724609 3.000007629394531 41.49116516113281 3.000007629394531 47.49993515014648 C 3.000007629394531 53.50870513916016 4.176162719726562 59.33615112304688 6.495811462402344 64.82039642333984 C 8.736968994140625 70.11905670166016 11.94598388671875 74.87837982177734 16.03376770019531 78.96613311767578 C 20.12153625488281 83.05390167236328 24.880859375 86.26293182373047 30.17951965332031 88.50407409667969 C 35.66378021240234 90.82372283935547 41.49122619628906 91.99987030029297 47.5000114440918 91.99987030029297 C 53.50879669189453 91.99987030029297 59.33624267578125 90.82372283935547 64.82050323486328 88.50407409667969 C 70.11916351318359 86.26293182373047 74.87848663330078 83.05390167236328 78.96625518798828 78.96613311767578 C 83.05403900146484 74.87837982177734 86.2630615234375 70.11905670166016 88.50421142578125 64.82039642333984 C 90.82386016845703 59.33615112304688 92.00001525878906 53.50870513916016 92.00001525878906 47.49993515014648 C 92.00001525878906 41.49116516113281 90.82386016845703 35.66371917724609 88.50421142578125 30.17947387695312 C 86.2630615234375 24.88081359863281 83.05403900146484 20.12149047851562 78.96625518798828 16.03373718261719 C 74.87848663330078 11.94596862792969 70.11916351318359 8.7369384765625 64.82050323486328 6.495796203613281 C 59.33624267578125 4.1761474609375 53.50879669189453 3 47.5000114440918 3 M 47.5000114440918 0 C 73.73353576660156 0 95.00001525878906 21.26644134521484 95.00001525878906 47.49993515014648 C 95.00001525878906 73.73342895507812 73.73353576660156 94.99987030029297 47.5000114440918 94.99987030029297 C 21.26648712158203 94.99987030029297 7.62939453125e-06 73.73342895507812 7.62939453125e-06 47.49993515014648 C 7.62939453125e-06 21.26644134521484 21.26648712158203 0 47.5000114440918 0 Z" stroke="none" fill="#453179"/>
                                      </g>
                                    </g>
                                  </g>
                                </g>
                              </g>
                            </g>
                          </g>
                        </g>
                      </g>
                    </g>
                  </g>
                </g>
              </g>
            </g>
          </g>
        </g>
      </g>
    </g>
    <g id="trabajo-infantil" transform="translate(3760.476 2228.287)">
      <g id="Grupo_1223827" data-name="Grupo 1223827" transform="translate(1.457 1.04)">
        <path id="Trazado_1210645" data-name="Trazado 1210645" d="M0,0H4.855V66.495H0Z" transform="translate(56.263 9.243) rotate(45)" fill="#ee6161"/>
        <path id="Trazado_1210646" data-name="Trazado 1210646" d="M180.732,96.166v-.793a15.027,15.027,0,1,0-30.054,0v.793Z" transform="translate(-131.232 -70.24)" fill="#fff0ad"/>
        <path id="Trazado_1210647" data-name="Trazado 1210647" d="M165.488,176.922H136.56a2.928,2.928,0,0,1-2.928-2.928v-.85a2.928,2.928,0,0,1,2.928-2.928h28.928a2.928,2.928,0,0,1,2.928,2.928v.85A2.928,2.928,0,0,1,165.488,176.922Z" transform="translate(-116.551 -147.644)" fill="#ffcebf"/>
        <path id="Trazado_1210648" data-name="Trazado 1210648" d="M177.056,276.635V291.16l-31.247.226-.218-14.75a4.2,4.2,0,0,1,3.336-4.11l2.913-.612,3.166-.666a1.868,1.868,0,0,0,.362-.117,1.8,1.8,0,0,0,1.067-1.644V263.67h9.777v5.817a1.8,1.8,0,0,0,1.067,1.644,1.867,1.867,0,0,0,.362.117l3.166.666,2.913.612A4.2,4.2,0,0,1,177.056,276.635Z" transform="translate(-126.85 -228.133)" fill="#ffcebf"/>
        <path id="Trazado_1210649" data-name="Trazado 1210649" d="M152.394,272.525l2.913-.612,3.166-.666a1.867,1.867,0,0,0,.362-.117,1.8,1.8,0,0,0,1.067-1.644V263.67h-3.468v5.817a1.8,1.8,0,0,1-1.067,1.644,1.868,1.868,0,0,1-.362.117l-3.166.666-2.913.612a4.2,4.2,0,0,0-3.336,4.11V293.3h3.468V276.635A4.2,4.2,0,0,1,152.394,272.525Z" transform="translate(-126.85 -228.133)" fill="#ffb09e"/>
        <path id="Trazado_1210650" data-name="Trazado 1210650" d="M209.606,318.232v21.391H190.64V318.232l3.528-.782v7.794a.555.555,0,0,0,.555.555h10.8a.555.555,0,0,0,.555-.555V317.45a1.87,1.87,0,0,0,.362.117Z" transform="translate(-165.65 -274.452)" fill="#d1a4a4"/>
        <path id="Trazado_1210651" data-name="Trazado 1210651" d="M195.929,111.955v5.518a10.575,10.575,0,0,1-10.575,10.574h-3.069a10.575,10.575,0,0,1-10.575-10.574v-5.518c0-.355.018-.706.051-1.052a10.578,10.578,0,0,1,10.524-9.523h3.069a10.577,10.577,0,0,1,10.526,9.55c.032.337.049.68.049,1.025Z" transform="translate(-149.346 -88.356)" fill="#ffeee6"/>
        <path id="Trazado_1210652" data-name="Trazado 1210652" d="M190.64,318.319l3.468-.769v22.16H190.64Z" transform="translate(-165.65 -274.538)" fill="#c59191"/>
        <path id="Trazado_1210653" data-name="Trazado 1210653" d="M175.178,117.473v-5.518c0-.355.018-.706.051-1.052a10.576,10.576,0,0,1,10.324-9.519c-.067,0-.133,0-.2,0h-3.069a10.578,10.578,0,0,0-10.524,9.523c-.033.345-.051.7-.051,1.052v5.518a10.575,10.575,0,0,0,10.575,10.574h3.069c.067,0,.133,0,.2,0a10.573,10.573,0,0,1-10.375-10.569Z" transform="translate(-149.346 -88.357)" fill="#ffdfcf"/>
        <path id="Trazado_1210654" data-name="Trazado 1210654" d="M196.2,110.93H189.98a9.4,9.4,0,0,1-8.812-6.123.528.528,0,0,0-.989,0,9.4,9.4,0,0,1-8.1,6.1A10.578,10.578,0,0,1,182.6,101.38h3.069a10.577,10.577,0,0,1,10.526,9.55Z" transform="translate(-149.665 -88.357)" fill="#fff0ad"/>
        <path id="Trazado_1210655" data-name="Trazado 1210655" d="M231.873,410.842h-6.448a1.665,1.665,0,0,1-1.665-1.665v-2.645a.555.555,0,0,1,.555-.555h8.668a.555.555,0,0,1,.555.555v2.645A1.665,1.665,0,0,1,231.873,410.842Z" transform="translate(-194.176 -350.698)" fill="#c59191"/>
        <path id="Trazado_1210656" data-name="Trazado 1210656" d="M227.228,409.177v-2.645a.555.555,0,0,1,.555-.555h-3.468a.555.555,0,0,0-.555.555v2.645a1.665,1.665,0,0,0,1.665,1.665h3.468A1.665,1.665,0,0,1,227.228,409.177Z" transform="translate(-194.176 -350.698)" fill="#b98080"/>
        <path id="Trazado_1210657" data-name="Trazado 1210657" d="M44.973,7.5A34.473,34.473,0,1,0,79.446,41.973,34.473,34.473,0,0,0,44.973,7.5ZM65.916,62.916a29.618,29.618,0,1,1,8.675-20.943A29.424,29.424,0,0,1,65.916,62.916Z" transform="translate(-10.5 -7.5)" fill="#f47c7c"/>
        <g id="Grupo_1223826" data-name="Grupo 1223826">
          <path id="Trazado_1210658" data-name="Trazado 1210658" d="M13.968,41.973A34.474,34.474,0,0,1,46.707,7.543Q45.846,7.5,44.973,7.5a34.473,34.473,0,0,0,0,68.946q.872,0,1.734-.043a34.474,34.474,0,0,1-32.739-34.43Z" transform="translate(-10.5 -7.5)" fill="#ee6161"/>
        </g>
        <path id="Trazado_1210659" data-name="Trazado 1210659" d="M155.711,92.817A15.059,15.059,0,0,1,168.784,80.45a15.219,15.219,0,0,0-1.734-.1,15.048,15.048,0,0,0-14.81,12.488Z" transform="translate(-132.577 -70.244)" fill="#ffe177"/>
      </g>
      <g id="Grupo_1223828" data-name="Grupo 1223828" transform="translate(0)">
        <path id="Trazado_1210660" data-name="Trazado 1210660" d="M60.626,10.4A35.514,35.514,0,0,0,10.4,60.626,35.514,35.514,0,0,0,60.626,10.4ZM35.514,68.946A33.433,33.433,0,1,1,68.946,35.514,33.471,33.471,0,0,1,35.514,68.946Z" transform="translate(0 0)"/>
        <path id="Trazado_1210661" data-name="Trazado 1210661" d="M90.036,43.979A30.661,30.661,0,0,0,37.87,62.405a1.04,1.04,0,1,0,2.069.217A28.584,28.584,0,0,1,85.965,43.145L81.711,47.4a16.066,16.066,0,0,0-29.056,5.517,3.974,3.974,0,0,0-2.729,3.768v.85A3.973,3.973,0,0,0,53.894,61.5H55.27a11.608,11.608,0,0,0,4.4,7.938L45.847,83.264a28.459,28.459,0,0,1-6.02-15.954,1.04,1.04,0,1,0-2.078.117A30.659,30.659,0,1,0,90.036,43.979Zm-2.476.514q.512.465,1,.957t.957,1l-5.66,5.66a16,16,0,0,0-1.076-2.848ZM81.507,54.8h1.314a1.889,1.889,0,0,1,1.888,1.887v.85a1.889,1.889,0,0,1-1.888,1.887H81.507ZM68.357,42.332A13.943,13.943,0,0,1,81.874,52.718H74.2a8.391,8.391,0,0,1-7.835-5.445,1.554,1.554,0,0,0-1.47-1.02h0a1.554,1.554,0,0,0-1.47,1.02,8.391,8.391,0,0,1-7.835,5.445h-.747A13.943,13.943,0,0,1,68.357,42.332Zm-16.351,15.2v-.85A1.889,1.889,0,0,1,53.894,54.8h1.314v4.624H53.894a1.889,1.889,0,0,1-1.888-1.887ZM57.289,60.3V54.784c0-.042,0-.085,0-.128a10.5,10.5,0,0,0,7.6-5.564A10.489,10.489,0,0,0,74.2,54.8h5.228v5.5a9.545,9.545,0,0,1-9.535,9.533H66.823A9.545,9.545,0,0,1,57.289,60.3ZM73.273,74.754v6.737h-9.83V74.755a2.842,2.842,0,0,0,1.067-2.216v-.855a11.626,11.626,0,0,0,2.314.232h3.069a11.627,11.627,0,0,0,2.314-.232v.855A2.84,2.84,0,0,0,73.273,74.754Zm-10.844-3.7v1.489a.756.756,0,0,1-.44.689.837.837,0,0,1-.162.053l-3.866.813,3.5-3.5Q61.93,70.845,62.428,71.05ZM51.584,88.8q-.422-.307-.835-.63l.835-.835Zm2.081-9.113a3.175,3.175,0,0,1,2.51-3.092l1.659-.349v16a28.249,28.249,0,0,1-4.169-2.059ZM47.193,84.86l4.391-4.391v3.924l-2.43,2.43q-.512-.465-1-.957T47.193,84.86Zm12.722,8.112V75.809l1.447-.3v6.471a1.6,1.6,0,0,0,1.6,1.6h10.8a1.6,1.6,0,0,0,1.6-1.6V75.505l1.447.3V92.973a28.86,28.86,0,0,1-16.886,0Zm28.65-7.107A28.965,28.965,0,0,1,85.131,88.8V86.912a1.04,1.04,0,0,0-2.081,0v3.27a28.249,28.249,0,0,1-4.169,2.059v-16l1.658.349a3.175,3.175,0,0,1,2.51,3.092v2.369a1.04,1.04,0,0,0,2.081,0V79.687a5.265,5.265,0,0,0-4.163-5.129l-6.08-1.278a.818.818,0,0,1-.151-.048.76.76,0,0,1-.45-.694V71.05A11.642,11.642,0,0,0,81.445,61.5h1.376a3.973,3.973,0,0,0,3.969-3.968v-.85A3.961,3.961,0,0,0,85.317,53.6L90.87,48.05a28.586,28.586,0,0,1-2.305,37.816Z" transform="translate(-32.511 -30.145)"/>
        <path id="Trazado_1210662" data-name="Trazado 1210662" d="M291.938,197.922a1.04,1.04,0,0,0,1.04-1.04V194.8a1.04,1.04,0,0,0-2.081,0v2.081A1.04,1.04,0,0,0,291.938,197.922Z" transform="translate(-250.543 -166.881)"/>
        <path id="Trazado_1210663" data-name="Trazado 1210663" d="M211.938,197.922a1.04,1.04,0,0,0,1.04-1.04V194.8a1.04,1.04,0,1,0-2.081,0v2.081A1.04,1.04,0,0,0,211.938,197.922Z" transform="translate(-181.641 -166.881)"/>
        <path id="Trazado_1210664" data-name="Trazado 1210664" d="M238.732,245.91a1.694,1.694,0,0,1,2.4,0,1.04,1.04,0,1,0,1.471-1.471,3.775,3.775,0,0,0-5.338,0,1.04,1.04,0,0,0,1.471,1.471Z" transform="translate(-204.085 -209.577)"/>
        <path id="Trazado_1210665" data-name="Trazado 1210665" d="M225.922,398.477h-8.667a1.6,1.6,0,0,0-1.6,1.6v2.645a2.708,2.708,0,0,0,2.705,2.705h6.448a2.708,2.708,0,0,0,2.705-2.705v-2.645A1.6,1.6,0,0,0,225.922,398.477Zm-.486,4.24a.625.625,0,0,1-.624.624h-6.448a.625.625,0,0,1-.624-.624v-2.159h7.7Z" transform="translate(-185.742 -343.198)"/>
      </g>
    </g>
  </g>
</svg>
